<?xml version="1.0" encoding="utf-8"?>
<!-- Generator: Adobe Illustrator 27.2.0, SVG Export Plug-In . SVG Version: 6.00 Build 0)  -->
<svg version="1.1" id="Layer_1" xmlns="http://www.w3.org/2000/svg" xmlns:xlink="http://www.w3.org/1999/xlink" x="0px" y="0px"
	 viewBox="0 0 1067.5 310.7" style="enable-background:new 0 0 1067.5 310.7;" xml:space="preserve">
<style type="text/css">
	.st0{fill:#1778F2;}
	.st1{fill:#F40009;}
	.st2{fill:#353535;}
</style>
<g>
	<g>
		<path id="Path_50_00000061451575724495782800000017999762361112075934_" class="st0" d="M657.1,1551.9c-3.1-0.5-6.2-1.5-8.9-3.1
			c-0.3-0.2-0.6-0.1-0.8,0.1l-37.7,37.7l0,0c-4.8,5.3-12.9,5.7-18.2,0.9l0,0l0,0c-5.2-4.7-5.7-12.6-1.2-17.9l0.3-0.3l0.1-0.1l0,0
			c0.3-0.3,0.5-0.6,0.8-0.8l0,0l37.4-37.4c0.2-0.2,0.2-0.5,0-0.7l0,0l-6.4-6.4c-0.2-0.2-0.5-0.2-0.7,0l0,0l-37.4,37.4l0,0l-0.1,0.1
			l-0.2,0.2c-5.1,5-13.2,4.9-18.2-0.2c-4.8-4.9-4.9-12.8-0.2-17.8c0.1-0.1,0.3-0.3,0.4-0.4l0,0l37.3-37.3c0.2-0.2,0.2-0.5,0-0.7l0,0
			l-6.4-6.4c-0.2-0.2-0.5-0.2-0.7,0l0,0l-37.7,37.7l0,0c-9,9-9,23.5,0,32.5c4.3,4.3,10.1,6.7,16.2,6.7c0.8,0,1.7,0,2.5-0.1
			c-0.1,0.8-0.1,1.7-0.1,2.5c0,12.7,10.3,23,23,23c6.1,0,11.9-2.4,16.2-6.7l0,0l41.1-41.1c0.3-0.3,0.3-0.7,0-0.9
			C657.4,1552,657.3,1551.9,657.1,1551.9z"/>
		<path id="Path_50-2_00000000207162407321728100000012837779580791035816_" class="st0" d="M553.1,1442c3.1,0.5,6.2,1.5,8.9,3.1
			c0.3,0.2,0.6,0.1,0.8-0.1l37.7-37.7l0,0c4.8-5.3,12.9-5.7,18.2-0.9l0,0l0,0c5.2,4.7,5.7,12.6,1.2,17.9l-0.3,0.3l-0.1,0.1l0,0
			c-0.3,0.3-0.5,0.6-0.8,0.8l0,0l-37.4,37.4c-0.2,0.2-0.2,0.5,0,0.7l0,0l6.4,6.4c0.2,0.2,0.5,0.2,0.7,0l0,0l37.4-37.4l0,0l0.1-0.1
			l0.2-0.2c5.1-5,13.2-4.9,18.2,0.2c4.8,4.9,4.9,12.8,0.2,17.8c-0.1,0.1-0.3,0.3-0.4,0.4l0,0l-37.3,37.3c-0.2,0.2-0.2,0.5,0,0.7l0,0
			l6.4,6.4c0.2,0.2,0.5,0.2,0.7,0l0,0l37.7-37.7l0,0c9-9,9-23.5,0-32.5c-4.3-4.3-10.1-6.7-16.2-6.7c-0.8,0-1.7,0-2.5,0.1
			c0.1-0.8,0.1-1.7,0.1-2.5c0-12.7-10.3-23-23-23c-6.1,0-11.9,2.4-16.2,6.7l0,0l-41.1,41.1c-0.3,0.3-0.3,0.7,0,0.9
			C552.8,1441.9,553,1442,553.1,1442z"/>
		<path id="Path_75_00000018920321266712551620000012971496291057768120_" class="st1" d="M660.1,1444.9c-0.5,3.1-1.5,6.2-3.1,8.9
			c-0.2,0.3-0.1,0.6,0.1,0.8l37.7,37.7c5.3,4.8,5.7,12.9,0.9,18.2l0,0l-0.1,0.1c-4.3,5.2-12,6-17.3,1.6c-0.3-0.2-0.6-0.5-0.9-0.8
			l0,0l-0.1-0.1l0,0c-0.3-0.3-0.6-0.5-0.8-0.8l-37.4-37.4c-0.2-0.2-0.5-0.2-0.7,0l0,0l-6.4,6.4c-0.2,0.2-0.2,0.5,0,0.7l0,0
			l37.4,37.4l0.1,0.1l0.2,0.2c5,5.1,4.9,13.2-0.2,18.2c-4.9,4.8-12.8,4.9-17.8,0.2c-0.1-0.1-0.3-0.3-0.4-0.4l-34.2-34.2l-13.6-13.6
			l-37.7-37.7c-9-9-23.5-9-32.5,0c-4.3,4.3-6.7,10.1-6.7,16.2c0,0.8,0,1.7,0.1,2.5c-0.8-0.1-1.7-0.1-2.5-0.1c-12.7,0-23,10.3-23,23
			c0,6.1,2.4,11.9,6.7,16.2l41.1,41.1c0.3,0.3,0.7,0.3,0.9,0c0.1-0.1,0.2-0.2,0.2-0.4c0.5-3.1,1.5-6.2,3.1-8.9
			c0.2-0.3,0.1-0.6-0.1-0.8l-37.7-37.7c-5.3-4.8-5.7-12.9-0.9-18.2l0,0l0,0c4.8-4.8,12.5-5.3,18-1.1l0.2,0.2l0.1,0.1l0,0
			c0.3,0.3,0.6,0.5,0.8,0.8l37.4,37.4c0.2,0.2,0.5,0.2,0.7,0l6.4-6.4c0.2-0.2,0.2-0.5,0-0.7l-37.4-37.4l-0.1-0.1l-0.2-0.2
			c-5-5.1-4.9-13.2,0.2-18.2c4.9-4.8,12.8-4.9,17.8-0.2c0.1,0.1,0.3,0.3,0.4,0.4l37.1,37.1l13.8,13.8l34.6,34.6c9,9,23.5,9,32.5,0
			c4.3-4.3,6.7-10.1,6.7-16.2c0-0.8,0-1.7-0.1-2.5c0.8,0.1,1.7,0.1,2.5,0.1c12.7,0,23-10.3,23-23c0-6.1-2.4-11.9-6.7-16.2
			l-41.1-41.1c-0.3-0.3-0.7-0.3-0.9,0C660.2,1444.7,660.1,1444.8,660.1,1444.9z"/>
		<g>
			<g>
				<g>
					<path class="st0" d="M831.9,1441.4c-1.8,0-3.2,0.4-4.2,1.1s-1.9,1.8-2.7,3.4l-39.2,74.2l-39.4-74.2c-0.8-1.6-1.8-2.7-2.8-3.4
						c-1-0.7-2.4-1.1-4.1-1.1c-4.1,0-6.2,2.2-6.2,6.5v98c0,4.3,2.1,6.5,6.2,6.5c4,0,6-2.2,6-6.5V1468l34.4,63.7
						c0.6,1.3,1.4,2.2,2.3,2.9c0.9,0.7,2.1,1,3.6,1s2.7-0.3,3.5-0.9s1.6-1.6,2.3-3l34-63.9v78c0,4.3,2.1,6.5,6.2,6.5
						c4.1,0,6.2-2.2,6.2-6.5v-98C837.9,1443.6,835.9,1441.4,831.9,1441.4z"/>
					<path class="st0" d="M920.7,1511.5c0-11.4-2.9-20.5-8.7-27s-13.9-9.9-24-9.9c-7.1,0-13.4,1.6-18.8,4.9
						c-5.4,3.2-9.7,7.9-12.8,13.8s-4.6,12.8-4.6,20.5c0,11.9,3.5,21.4,10.4,28.4c6.9,6.9,16.4,10.5,28.2,10.5c4.4,0,9-0.7,13.7-2
						s8.8-3.3,12.1-5.7c2.2-1.5,3.4-3.3,3.3-5.3c-0.1-2-0.9-3.5-2.6-4.5c-1.7-1-3.8-0.7-6.3,0.9c-3.2,2.2-6.6,3.8-10,4.6
						c-3.4,0.9-6.9,1.3-10.2,1.3c-7.8,0-14-2.2-18.5-6.6c-4.3-4.3-6.8-10.6-7.2-18.8h50.4C918.7,1516.6,920.7,1514.9,920.7,1511.5z
						 M864.8,1507.8c0.8-6.9,3.1-12.5,7.1-16.7c4-4.3,9.5-6.5,16.4-6.5c6.5,0,11.6,2.1,15.1,6.2c3.5,4,5.4,9.8,5.8,17H864.8z"/>
					<path class="st0" d="M992.2,1441.4c-4.4,0-6.6,2.2-6.6,6.6v39.9c-2.2-3.9-5.3-7.1-9.4-9.4c-4.5-2.6-9.7-3.9-15.6-3.9
						c-6.7,0-12.6,1.6-17.6,4.7s-8.9,7.7-11.6,13.5c-2.7,5.8-4.1,12.8-4.1,20.8c0,7.9,1.4,14.8,4.1,20.6c2.7,5.8,6.6,10.4,11.6,13.6
						s10.9,4.8,17.6,4.8c5.9,0,11.1-1.3,15.6-4c4.1-2.4,7.3-5.6,9.5-9.7v6.5c0,4.5,2.2,6.8,6.5,6.8s6.5-2.3,6.5-6.8v-97.5
						C998.7,1443.6,996.5,1441.4,992.2,1441.4z M985.9,1513.7c0,9.1-2.1,16.1-6.2,21c-4.1,4.8-9.6,7.3-16.4,7.3
						c-6.9,0-12.5-2.5-16.5-7.3c-4.1-4.9-6.1-11.9-6.1-21c0-9.2,2.1-16.3,6.1-21.1c4-4.8,9.6-7.2,16.5-7.2c6.8,0,12.3,2.4,16.4,7.2
						C983.8,1497.4,985.9,1504.5,985.9,1513.7z"/>
					<path class="st0" d="M1021.8,1458.8c5.6,0,8.5-2.7,8.5-8c0-5.2-2.9-7.9-8.5-7.9s-8.5,2.6-8.5,7.9
						C1013.3,1456.1,1016.2,1458.8,1021.8,1458.8z"/>
					<path class="st0" d="M1021.8,1475.3c-4.3,0-6.5,2.3-6.5,6.9v62.7c0,4.7,2.2,7.1,6.5,7.1c4.4,0,6.6-2.4,6.6-7.1v-62.7
						C1028.4,1477.6,1026.2,1475.3,1021.8,1475.3z"/>
				</g>
				<g>
					<path class="st1" d="M1116.9,1495.4c5-2,9-5,11.9-8.9c3.1-4.2,4.7-9.4,4.7-15.4c0-9-3.1-16-9.3-21c-6.1-5-14.9-7.5-26.1-7.5
						h-36.3c-4.8,0-7.3,2.4-7.3,7.3v94.3c0,4.8,2.4,7.3,7.3,7.3h38.2c11.4,0,20.3-2.6,26.6-7.7c6.3-5.2,9.5-12.7,9.5-22.4
						c0-6.8-1.8-12.5-5.4-16.9C1127.3,1500.1,1122.7,1497.1,1116.9,1495.4z M1122.9,1521c0,13.1-7.9,19.4-24.2,19.4h-31.2v-38.8
						h31.2C1115,1501.6,1122.9,1508,1122.9,1521z M1067.5,1490.8v-37.5h28.8c16.2,0,24,6.2,24,18.8c0,12.6-7.9,18.7-24,18.7H1067.5z
						"/>
					<path class="st1" d="M1207.4,1475c-4.4,0-6.6,2.2-6.6,6.6v37.1c0,6.9-2,12.5-5.9,16.7c-3.9,4.1-9,6.3-15.2,6.3
						c-5.7,0-9.9-1.6-12.5-4.6c-2.6-3.1-4-8-4-14.5v-40.9c0-4.4-2.2-6.6-6.6-6.6c-4.3,0-6.5,2.2-6.5,6.6v41.1
						c0,19.9,9.1,29.9,27.2,29.9c5.3,0,10.2-1.2,14.5-3.6c3.9-2.2,7-5.3,9.4-9.3v5.8c0,4.5,2.2,6.8,6.5,6.8c4.2,0,6.3-2.3,6.3-6.8
						v-63.9C1213.9,1477.2,1211.7,1475,1207.4,1475z"/>
					<path class="st1" d="M1290.8,1441.4c-4.4,0-6.6,2.2-6.6,6.6v39.9c-2.2-3.9-5.3-7.1-9.4-9.4c-4.5-2.6-9.7-3.9-15.6-3.9
						c-6.7,0-12.6,1.6-17.6,4.7s-8.9,7.7-11.6,13.5s-4.1,12.8-4.1,20.8c0,7.9,1.4,14.8,4.1,20.6c2.7,5.8,6.6,10.4,11.6,13.6
						s10.9,4.8,17.6,4.8c5.9,0,11.1-1.3,15.6-4c4.1-2.4,7.3-5.6,9.5-9.7v6.5c0,4.5,2.2,6.8,6.5,6.8s6.5-2.3,6.5-6.8v-97.5
						C1297.3,1443.6,1295.1,1441.4,1290.8,1441.4z M1284.5,1513.7c0,9.1-2.1,16.1-6.2,21c-4.1,4.8-9.6,7.3-16.4,7.3
						c-6.9,0-12.5-2.5-16.5-7.3c-4.1-4.9-6.1-11.9-6.1-21c0-9.2,2.1-16.3,6.1-21.1c4-4.8,9.6-7.2,16.5-7.2c6.8,0,12.3,2.4,16.4,7.2
						C1282.4,1497.4,1284.5,1504.5,1284.5,1513.7z"/>
					<path class="st1" d="M1374.2,1441.4c-4.4,0-6.6,2.2-6.6,6.6v39.9c-2.2-3.9-5.3-7.1-9.4-9.4c-4.5-2.6-9.7-3.9-15.6-3.9
						c-6.7,0-12.6,1.6-17.6,4.7s-8.9,7.7-11.6,13.5s-4.1,12.8-4.1,20.8c0,7.9,1.4,14.8,4.1,20.6c2.7,5.8,6.6,10.4,11.6,13.6
						s10.9,4.8,17.6,4.8c5.9,0,11.1-1.3,15.6-4c4.1-2.4,7.3-5.6,9.5-9.7v6.5c0,4.5,2.2,6.8,6.5,6.8s6.5-2.3,6.5-6.8v-97.5
						C1380.7,1443.6,1378.5,1441.4,1374.2,1441.4z M1367.9,1513.7c0,9.1-2.1,16.1-6.2,21c-4.1,4.8-9.6,7.3-16.4,7.3
						c-6.9,0-12.5-2.5-16.5-7.3c-4.1-4.9-6.1-11.9-6.1-21c0-9.2,2.1-16.3,6.1-21.1c4.1-4.8,9.6-7.2,16.5-7.2
						c6.8,0,12.3,2.4,16.4,7.2C1365.8,1497.4,1367.9,1504.5,1367.9,1513.7z"/>
					<path class="st1" d="M1460.7,1477.8c-0.9-1.9-2.6-2.8-5.1-2.8c-1.8,0-3.2,0.4-4.2,1.1c-1,0.8-1.9,2.1-2.7,4l-23,55.8
						l-22.8-55.8c-1.4-3.4-3.6-5.1-6.6-5.1c-2.9,0-4.9,0.9-5.9,2.8c-1,1.8-1,4,0.1,6.4l28.1,65.5l-9.3,21c-1,2.3-1,4.5-0.1,6.3
						c0.9,1.9,2.6,2.9,5.1,2.9c1.8,0,3.2-0.4,4.3-1.1c1-0.7,2-2.1,2.8-4l39.2-90.8C1461.5,1481.7,1461.5,1479.6,1460.7,1477.8z"/>
				</g>
			</g>
		</g>
		<g>
			<path class="st1" d="M1485.7,1476.8c-2.5,0-4.7-0.4-6.8-1.3c-2.1-0.9-3.9-2.1-5.5-3.7s-2.8-3.4-3.7-5.5c-0.9-2.1-1.3-4.4-1.3-6.8
				s0.4-4.7,1.3-6.8c0.9-2.1,2.1-3.9,3.7-5.5s3.4-2.8,5.5-3.7c2.1-0.9,4.4-1.3,6.8-1.3s4.7,0.4,6.8,1.3c2.1,0.9,3.9,2.1,5.5,3.7
				s2.8,3.4,3.7,5.5c0.9,2.1,1.3,4.4,1.3,6.8s-0.4,4.7-1.3,6.8c-0.9,2.1-2.1,3.9-3.7,5.5s-3.4,2.8-5.5,3.7
				C1490.5,1476.4,1488.2,1476.8,1485.7,1476.8z M1485.7,1474.3c2.8,0,5.3-0.7,7.5-2s3.9-3.1,5.2-5.3c1.3-2.2,1.9-4.7,1.9-7.5
				s-0.6-5.3-1.9-7.5s-3-4-5.2-5.3s-4.7-1.9-7.5-1.9s-5.3,0.6-7.5,1.9s-4,3.1-5.2,5.3c-1.3,2.2-1.9,4.7-1.9,7.5s0.6,5.3,1.9,7.5
				s3,4,5.2,5.3C1480.4,1473.7,1482.9,1474.3,1485.7,1474.3z"/>
			<g>
				<path class="st1" d="M1479.3,1465.3c-0.4,0-0.7-0.1-0.9-0.3c-0.2-0.2-0.3-0.5-0.3-0.9v-8.1h-2.8c-0.7,0-1-0.3-1-1s0.3-1,1-1h8.2
					c0.7,0,1,0.3,1,1s-0.3,1-1,1h-2.8v8.1c0,0.4-0.1,0.7-0.3,0.9S1479.7,1465.3,1479.3,1465.3z"/>
				<path class="st1" d="M1486.6,1465.3c-0.4,0-0.6-0.1-0.8-0.3c-0.2-0.2-0.3-0.5-0.3-0.9v-9.3c0-0.4,0.1-0.7,0.3-0.9
					c0.2-0.2,0.5-0.3,0.9-0.3c0.3,0,0.6,0.1,0.8,0.2c0.2,0.1,0.4,0.3,0.5,0.6l3.4,6.3l3.4-6.3c0.2-0.3,0.3-0.5,0.5-0.6
					s0.4-0.2,0.7-0.2c0.4,0,0.6,0.1,0.8,0.3c0.2,0.2,0.3,0.5,0.3,0.9v9.3c0,0.8-0.4,1.2-1.1,1.2c-0.8,0-1.1-0.4-1.1-1.2v-5.9
					l-2.6,4.7c-0.1,0.2-0.3,0.4-0.4,0.5s-0.3,0.2-0.6,0.2s-0.4-0.1-0.6-0.2s-0.3-0.3-0.4-0.5l-2.6-4.7v5.9
					C1487.8,1465,1487.4,1465.3,1486.6,1465.3z"/>
			</g>
		</g>
	</g>
	<g>
		<g>
			<path class="st2" d="M518.2,1661.9c-1.6,0-2.5-0.9-2.5-2.6v-17.8l-14-19.2c-0.6-0.8-0.7-1.5-0.3-2.3c0.3-0.8,1-1.2,2-1.2
				s1.9,0.5,2.7,1.6l12.2,16.8l12.1-16.8c0.8-1.1,1.7-1.6,2.7-1.6s1.6,0.4,1.9,1.1c0.3,0.7,0.2,1.6-0.4,2.4l-14,19.3v17.7
				C520.7,1661.1,519.8,1661.9,518.2,1661.9z"/>
			<path class="st2" d="M548,1662.1c-2.8,0-5.3-0.6-7.4-1.9c-2.1-1.2-3.7-3-4.8-5.3s-1.7-4.9-1.7-8s0.6-5.8,1.7-8
				c1.1-2.3,2.8-4,4.8-5.3c2.1-1.2,4.5-1.9,7.4-1.9c2.8,0,5.3,0.6,7.4,1.9c2.1,1.2,3.7,3,4.9,5.3c1.1,2.3,1.7,4.9,1.7,8
				s-0.6,5.8-1.7,8c-1.1,2.3-2.8,4-4.9,5.3C553.3,1661.4,550.9,1662.1,548,1662.1z M548,1658.2c2.7,0,4.9-1,6.5-2.9s2.5-4.7,2.5-8.3
				c0-3.6-0.8-6.4-2.5-8.3c-1.6-1.9-3.8-2.9-6.5-2.9c-2.8,0-5,1-6.6,2.9s-2.4,4.7-2.4,8.3c0,3.6,0.8,6.4,2.4,8.3
				C543.1,1657.2,545.3,1658.2,548,1658.2z"/>
			<path class="st2" d="M579.6,1662.1c-7,0-10.5-3.9-10.5-11.6v-16.1c0-1.6,0.8-2.5,2.4-2.5c1.6,0,2.5,0.8,2.5,2.5v16
				c0,2.6,0.5,4.5,1.6,5.8c1.1,1.2,2.7,1.9,5,1.9c2.5,0,4.5-0.8,6.1-2.5s2.3-3.9,2.3-6.6v-14.5c0-1.6,0.8-2.5,2.5-2.5
				c1.6,0,2.4,0.8,2.4,2.5v25c0,1.7-0.8,2.5-2.3,2.5c-1.6,0-2.4-0.8-2.4-2.5v-2.8c-0.9,1.8-2.2,3.1-3.9,4.1
				C583.6,1661.6,581.7,1662.1,579.6,1662.1z"/>
			<path class="st2" d="M605.5,1661.9c-1.6,0-2.5-0.8-2.5-2.5v-25c0-1.6,0.8-2.5,2.3-2.5c1.6,0,2.4,0.8,2.4,2.5v3.2
				c0.8-1.8,2-3.3,3.7-4.2c1.7-1,3.7-1.5,6-1.6c1.3-0.1,2,0.5,2,1.9c0.1,1.4-0.6,2.2-2.2,2.3l-1,0.1c-2.8,0.2-4.9,1.1-6.3,2.6
				c-1.4,1.5-2.2,3.6-2.2,6.2v14.5C607.9,1661.1,607.1,1661.9,605.5,1661.9z"/>
			<path class="st2" d="M651.7,1662.1c-3.4,0-6-0.9-7.7-2.7c-1.7-1.8-2.6-4.5-2.6-7.9v-15.3h-4c-1.4,0-2.1-0.6-2.1-1.9
				c0-1.2,0.7-1.9,2.1-1.9h4v-6.9c0-1.6,0.8-2.5,2.5-2.5c1.6,0,2.4,0.8,2.4,2.5v6.9h7.6c1.4,0,2.1,0.6,2.1,1.9s-0.7,1.9-2.1,1.9
				h-7.6v14.8c0,2.3,0.5,4,1.4,5.2c1,1.2,2.5,1.8,4.7,1.8c0.8,0,1.4-0.1,1.9-0.2c0.5-0.2,1-0.2,1.4-0.2s0.7,0.1,0.9,0.4
				s0.4,0.8,0.4,1.4c0,0.5-0.1,0.9-0.3,1.3s-0.5,0.7-0.9,0.8c-0.5,0.2-1.1,0.3-1.9,0.5C653,1662,652.3,1662.1,651.7,1662.1z"/>
			<path class="st2" d="M663.5,1661.9c-1.6,0-2.5-0.8-2.5-2.5v-25c0-1.6,0.8-2.5,2.3-2.5c1.6,0,2.4,0.8,2.4,2.5v3.2
				c0.8-1.8,2-3.3,3.7-4.2c1.7-1,3.7-1.5,6-1.6c1.3-0.1,2,0.5,2,1.9c0.1,1.4-0.6,2.2-2.2,2.3l-1,0.1c-2.8,0.2-4.9,1.1-6.3,2.6
				c-1.4,1.5-2.2,3.6-2.2,6.2v14.5C665.9,1661.1,665.1,1661.9,663.5,1661.9z"/>
			<path class="st2" d="M692.8,1662.1c-7,0-10.5-3.9-10.5-11.6v-16.1c0-1.6,0.8-2.5,2.4-2.5c1.6,0,2.5,0.8,2.5,2.5v16
				c0,2.6,0.5,4.5,1.6,5.8c1.1,1.2,2.7,1.9,5,1.9c2.5,0,4.5-0.8,6.1-2.5s2.3-3.9,2.3-6.6v-14.5c0-1.6,0.8-2.5,2.5-2.5
				c1.6,0,2.4,0.8,2.4,2.5v25c0,1.7-0.8,2.5-2.3,2.5c-1.6,0-2.4-0.8-2.4-2.5v-2.8c-0.9,1.8-2.2,3.1-3.9,4.1
				C696.8,1661.6,694.9,1662.1,692.8,1662.1z"/>
			<path class="st2" d="M726,1662.1c-1.8,0-3.6-0.2-5.4-0.7c-1.8-0.5-3.5-1.2-5.1-2.3c-0.7-0.4-1.1-1-1.1-1.7s0.3-1.3,0.8-1.7
				c0.5-0.4,1.2-0.4,2,0c1.6,1,3.1,1.6,4.5,2c1.5,0.4,2.9,0.6,4.4,0.6c2.3,0,4-0.4,5.2-1.3c1.2-0.8,1.7-2,1.7-3.4
				c0-1.1-0.4-2-1.1-2.7c-0.8-0.7-2-1.2-3.6-1.5l-5.5-1.2c-5-1.1-7.4-3.6-7.4-7.7c0-2.6,1.1-4.8,3.2-6.4c2.1-1.6,4.9-2.4,8.3-2.4
				c1.7,0,3.4,0.2,5,0.7s3,1.2,4.3,2.2c0.7,0.5,1,1.1,0.9,1.7c-0.1,0.7-0.4,1.2-0.9,1.6s-1.2,0.3-2-0.2c-1.2-0.8-2.4-1.4-3.7-1.8
				c-1.2-0.4-2.5-0.6-3.7-0.6c-2.2,0-3.9,0.4-5.1,1.3c-1.2,0.9-1.7,2-1.7,3.5c0,2.2,1.5,3.7,4.4,4.3l5.5,1.1
				c2.6,0.6,4.5,1.5,5.8,2.7s2,2.9,2,5c0,2.7-1.1,4.8-3.2,6.3C732.4,1661.3,729.6,1662.1,726,1662.1z"/>
			<path class="st2" d="M756.5,1662.1c-3.4,0-6-0.9-7.7-2.7c-1.7-1.8-2.6-4.5-2.6-7.9v-15.3h-4c-1.4,0-2.1-0.6-2.1-1.9
				c0-1.2,0.7-1.9,2.1-1.9h4v-6.9c0-1.6,0.8-2.5,2.5-2.5c1.6,0,2.4,0.8,2.4,2.5v6.9h7.6c1.4,0,2.1,0.6,2.1,1.9s-0.7,1.9-2.1,1.9H751
				v14.8c0,2.3,0.5,4,1.4,5.2c1,1.2,2.5,1.8,4.7,1.8c0.8,0,1.4-0.1,1.9-0.2c0.5-0.2,1-0.2,1.4-0.2s0.7,0.1,0.9,0.4s0.4,0.8,0.4,1.4
				c0,0.5-0.1,0.9-0.3,1.3s-0.5,0.7-0.9,0.8c-0.5,0.2-1.1,0.3-1.9,0.5C757.8,1662,757.1,1662.1,756.5,1662.1z"/>
			<path class="st2" d="M778.6,1662.1c-4.6,0-8.2-1.4-10.9-4.1s-4-6.4-4-11c0-3,0.6-5.7,1.8-8s2.9-4.1,5-5.3s4.5-1.9,7.3-1.9
				c4,0,7.1,1.3,9.3,3.8s3.4,6,3.4,10.5c0,1.2-0.7,1.9-2.1,1.9h-19.9c0.2,3.3,1.1,5.9,2.9,7.6c1.8,1.7,4.2,2.6,7.3,2.6
				c1.3,0,2.7-0.2,4-0.5c1.4-0.3,2.7-1,4-1.8c0.9-0.6,1.7-0.7,2.3-0.4c0.6,0.4,0.9,0.9,1,1.7c0,0.7-0.4,1.4-1.2,2
				c-1.3,1-2.9,1.7-4.7,2.2C782.1,1661.8,780.4,1662.1,778.6,1662.1z M777.9,1635.4c-2.8,0-4.9,0.9-6.5,2.6s-2.5,4-2.8,6.8h17.7
				c-0.1-3-0.9-5.3-2.3-6.9C782.5,1636.2,780.5,1635.4,777.9,1635.4z"/>
			<path class="st2" d="M808.5,1662.1c-2.6,0-4.9-0.6-6.8-1.9c-1.9-1.2-3.4-3-4.5-5.3s-1.6-4.9-1.6-8s0.5-5.8,1.6-8.1
				c1.1-2.3,2.6-4,4.5-5.2s4.2-1.8,6.8-1.8c2.3,0,4.3,0.5,6,1.5s3,2.4,3.9,4.1v-16.2c0-1.6,0.8-2.5,2.5-2.5c1.6,0,2.4,0.8,2.4,2.5
				v38.2c0,1.7-0.8,2.5-2.4,2.5c-1.6,0-2.4-0.8-2.4-2.5v-3.1c-0.9,1.8-2.2,3.2-3.9,4.2C812.8,1661.6,810.8,1662.1,808.5,1662.1z
				 M809.6,1658.2c2.7,0,4.9-1,6.5-2.9s2.5-4.7,2.5-8.3c0-3.6-0.8-6.4-2.5-8.3c-1.6-1.9-3.8-2.9-6.5-2.9c-2.8,0-5,1-6.6,2.9
				s-2.4,4.7-2.4,8.3c0,3.6,0.8,6.4,2.4,8.3C804.6,1657.2,806.8,1658.2,809.6,1658.2z"/>
			<path class="st2" d="M862.7,1662.1c-2.3,0-4.3-0.5-6.1-1.5s-3.1-2.4-3.9-4.2v3.1c0,1.7-0.8,2.5-2.4,2.5c-1.6,0-2.4-0.8-2.4-2.5
				v-38.2c0-1.6,0.8-2.5,2.4-2.5c1.6,0,2.5,0.8,2.5,2.5v16.2c0.8-1.7,2.1-3.1,3.9-4.1c1.8-1,3.8-1.5,6-1.5c2.6,0,4.9,0.6,6.8,1.8
				c1.9,1.2,3.4,3,4.5,5.2c1.1,2.3,1.6,5,1.6,8.1s-0.5,5.8-1.6,8c-1.1,2.3-2.6,4-4.5,5.3C867.6,1661.4,865.3,1662.1,862.7,1662.1z
				 M861.7,1658.2c2.7,0,4.9-1,6.5-2.9s2.5-4.7,2.5-8.3c0-3.6-0.8-6.4-2.5-8.3c-1.6-1.9-3.8-2.9-6.5-2.9s-4.9,1-6.5,2.9
				s-2.5,4.7-2.5,8.3c0,3.6,0.8,6.4,2.5,8.3C856.8,1657.2,859,1658.2,861.7,1658.2z"/>
			<path class="st2" d="M893.3,1662.1c-7,0-10.5-3.9-10.5-11.6v-16.1c0-1.6,0.8-2.5,2.4-2.5c1.6,0,2.5,0.8,2.5,2.5v16
				c0,2.6,0.5,4.5,1.6,5.8c1.1,1.2,2.7,1.9,5,1.9c2.5,0,4.5-0.8,6.1-2.5s2.3-3.9,2.3-6.6v-14.5c0-1.6,0.8-2.5,2.5-2.5
				c1.6,0,2.4,0.8,2.4,2.5v25c0,1.7-0.8,2.5-2.3,2.5c-1.6,0-2.4-0.8-2.4-2.5v-2.8c-0.9,1.8-2.2,3.1-3.9,4.1
				C897.2,1661.6,895.4,1662.1,893.3,1662.1z"/>
			<path class="st2" d="M927.7,1662.1c-2.6,0-4.9-0.6-6.8-1.9c-1.9-1.2-3.4-3-4.5-5.3s-1.6-4.9-1.6-8s0.5-5.8,1.6-8.1
				c1.1-2.3,2.6-4,4.5-5.2s4.2-1.8,6.8-1.8c2.3,0,4.3,0.5,6,1.5s3,2.4,3.9,4.1v-16.2c0-1.6,0.8-2.5,2.5-2.5c1.6,0,2.4,0.8,2.4,2.5
				v38.2c0,1.7-0.8,2.5-2.4,2.5c-1.6,0-2.4-0.8-2.4-2.5v-3.1c-0.9,1.8-2.2,3.2-3.9,4.2C932,1661.6,930,1662.1,927.7,1662.1z
				 M928.8,1658.2c2.7,0,4.9-1,6.5-2.9s2.5-4.7,2.5-8.3c0-3.6-0.8-6.4-2.5-8.3c-1.6-1.9-3.8-2.9-6.5-2.9c-2.8,0-5,1-6.6,2.9
				s-2.4,4.7-2.4,8.3c0,3.6,0.8,6.4,2.4,8.3C923.8,1657.2,926,1658.2,928.8,1658.2z"/>
			<path class="st2" d="M962.8,1662.1c-2.6,0-4.9-0.6-6.8-1.9c-1.9-1.2-3.4-3-4.5-5.3s-1.6-4.9-1.6-8s0.5-5.8,1.6-8.1
				c1.1-2.3,2.6-4,4.5-5.2s4.2-1.8,6.8-1.8c2.3,0,4.3,0.5,6,1.5s3,2.4,3.9,4.1v-16.2c0-1.6,0.8-2.5,2.5-2.5c1.6,0,2.4,0.8,2.4,2.5
				v38.2c0,1.7-0.8,2.5-2.4,2.5c-1.6,0-2.4-0.8-2.4-2.5v-3.1c-0.9,1.8-2.2,3.2-3.9,4.2C967,1661.6,965,1662.1,962.8,1662.1z
				 M963.8,1658.2c2.7,0,4.9-1,6.5-2.9s2.5-4.7,2.5-8.3c0-3.6-0.8-6.4-2.5-8.3c-1.6-1.9-3.8-2.9-6.5-2.9c-2.8,0-5,1-6.6,2.9
				s-2.4,4.7-2.4,8.3c0,3.6,0.8,6.4,2.4,8.3C958.8,1657.2,961,1658.2,963.8,1658.2z"/>
			<path class="st2" d="M993.1,1672.8c-0.9,0-1.5-0.4-1.9-1.1c-0.3-0.7-0.3-1.5,0.1-2.4l3.7-8.3l-11-25.7c-0.4-0.9-0.4-1.7,0-2.4
				c0.4-0.7,1.1-1,2.2-1c1.1,0,1.9,0.6,2.5,1.9l9.1,22.2l9.1-22.2c0.3-0.7,0.7-1.2,1-1.5c0.4-0.3,0.9-0.4,1.6-0.4
				c0.9,0,1.5,0.3,1.9,1c0.3,0.7,0.3,1.5-0.1,2.3l-15.4,35.5c-0.3,0.7-0.7,1.2-1.1,1.5C994.3,1672.6,993.8,1672.8,993.1,1672.8z"/>
			<path class="st2" d="M1037,1661.9c-1.6,0-2.4-0.8-2.4-2.5v-23.3h-3.8c-1.4,0-2.1-0.6-2.1-1.9c0-1.2,0.7-1.9,2.1-1.9h3.8v-1
				c0-7.5,3.7-11.5,11-12.2l1.7-0.2c0.7,0,1.2,0.1,1.6,0.5c0.3,0.4,0.5,0.8,0.5,1.3s-0.1,1-0.4,1.4s-0.7,0.6-1.2,0.7l-1.4,0.1
				c-2.4,0.2-4.2,0.9-5.3,2.2c-1.1,1.3-1.7,3.2-1.7,5.6v1.6h6.5c1.4,0,2.1,0.6,2.1,1.9s-0.7,1.9-2.1,1.9h-6.5v23.3
				C1039.4,1661.1,1038.6,1661.9,1037,1661.9z"/>
			<path class="st2" d="M1064.3,1662.1c-2.8,0-5.3-0.6-7.4-1.9c-2.1-1.2-3.7-3-4.8-5.3c-1.1-2.3-1.7-4.9-1.7-8s0.6-5.8,1.7-8
				c1.1-2.3,2.8-4,4.8-5.3c2.1-1.2,4.5-1.9,7.4-1.9c2.8,0,5.3,0.6,7.4,1.9c2.1,1.2,3.7,3,4.9,5.3c1.1,2.3,1.7,4.9,1.7,8
				s-0.6,5.8-1.7,8c-1.1,2.3-2.8,4-4.9,5.3C1069.5,1661.4,1067.1,1662.1,1064.3,1662.1z M1064.3,1658.2c2.7,0,4.9-1,6.5-2.9
				s2.5-4.7,2.5-8.3c0-3.6-0.8-6.4-2.5-8.3c-1.6-1.9-3.8-2.9-6.5-2.9c-2.8,0-5,1-6.6,2.9s-2.4,4.7-2.4,8.3c0,3.6,0.8,6.4,2.4,8.3
				S1061.5,1658.2,1064.3,1658.2z"/>
			<path class="st2" d="M1088,1661.9c-1.6,0-2.5-0.8-2.5-2.5v-25c0-1.6,0.8-2.5,2.3-2.5c1.6,0,2.4,0.8,2.4,2.5v3.2
				c0.8-1.8,2-3.3,3.7-4.2c1.7-1,3.7-1.5,6-1.6c1.3-0.1,2,0.5,2,1.9c0.1,1.4-0.6,2.2-2.2,2.3l-1,0.1c-2.8,0.2-4.9,1.1-6.3,2.6
				s-2.2,3.6-2.2,6.2v14.5C1090.5,1661.1,1089.7,1661.9,1088,1661.9z"/>
			<path class="st2" d="M1137.3,1662.1c-2.3,0-4.3-0.5-6.1-1.5c-1.8-1-3.1-2.4-3.9-4.2v3.1c0,1.7-0.8,2.5-2.4,2.5s-2.4-0.8-2.4-2.5
				v-38.2c0-1.6,0.8-2.5,2.4-2.5s2.5,0.8,2.5,2.5v16.2c0.8-1.7,2.1-3.1,3.9-4.1s3.8-1.5,6-1.5c2.6,0,4.9,0.6,6.8,1.8
				c1.9,1.2,3.4,3,4.5,5.2c1.1,2.3,1.6,5,1.6,8.1s-0.5,5.8-1.6,8c-1.1,2.3-2.6,4-4.5,5.3C1142.2,1661.4,1139.9,1662.1,1137.3,1662.1
				z M1136.3,1658.2c2.7,0,4.9-1,6.5-2.9s2.5-4.7,2.5-8.3c0-3.6-0.8-6.4-2.5-8.3c-1.6-1.9-3.8-2.9-6.5-2.9s-4.9,1-6.5,2.9
				s-2.5,4.7-2.5,8.3c0,3.6,0.8,6.4,2.5,8.3C1131.4,1657.2,1133.6,1658.2,1136.3,1658.2z"/>
			<path class="st2" d="M1170.7,1662.1c-4.6,0-8.2-1.4-10.9-4.1c-2.7-2.7-4-6.4-4-11c0-3,0.6-5.7,1.8-8c1.2-2.3,2.9-4.1,5-5.3
				c2.1-1.3,4.5-1.9,7.3-1.9c4,0,7.1,1.3,9.3,3.8c2.2,2.5,3.4,6,3.4,10.5c0,1.2-0.7,1.9-2.1,1.9h-19.9c0.2,3.3,1.1,5.9,2.9,7.6
				s4.2,2.6,7.3,2.6c1.3,0,2.7-0.2,4-0.5c1.4-0.3,2.7-1,4-1.8c0.9-0.6,1.7-0.7,2.3-0.4c0.6,0.4,0.9,0.9,1,1.7c0,0.7-0.4,1.4-1.2,2
				c-1.3,1-2.9,1.7-4.7,2.2C1174.2,1661.8,1172.4,1662.1,1170.7,1662.1z M1169.9,1635.4c-2.8,0-4.9,0.9-6.5,2.6s-2.5,4-2.8,6.8h17.7
				c-0.1-3-0.9-5.3-2.3-6.9C1174.5,1636.2,1172.5,1635.4,1169.9,1635.4z"/>
			<path class="st2" d="M1201.2,1662.1c-3.4,0-6-0.9-7.7-2.7c-1.7-1.8-2.6-4.5-2.6-7.9v-15.3h-4c-1.4,0-2.1-0.6-2.1-1.9
				c0-1.2,0.7-1.9,2.1-1.9h4v-6.9c0-1.6,0.8-2.5,2.5-2.5c1.6,0,2.4,0.8,2.4,2.5v6.9h7.6c1.4,0,2.1,0.6,2.1,1.9s-0.7,1.9-2.1,1.9
				h-7.6v14.8c0,2.3,0.5,4,1.4,5.2c1,1.2,2.5,1.8,4.7,1.8c0.8,0,1.4-0.1,1.9-0.2c0.5-0.2,1-0.2,1.4-0.2s0.7,0.1,0.9,0.4
				c0.2,0.3,0.4,0.8,0.4,1.4c0,0.5-0.1,0.9-0.3,1.3c-0.2,0.4-0.5,0.7-0.9,0.8c-0.5,0.2-1.1,0.3-1.9,0.5
				C1202.6,1662,1201.8,1662.1,1201.2,1662.1z"/>
			<path class="st2" d="M1221.4,1662.1c-3.4,0-6-0.9-7.7-2.7c-1.7-1.8-2.6-4.5-2.6-7.9v-15.3h-4c-1.4,0-2.1-0.6-2.1-1.9
				c0-1.2,0.7-1.9,2.1-1.9h4v-6.9c0-1.6,0.8-2.5,2.5-2.5c1.6,0,2.4,0.8,2.4,2.5v6.9h7.6c1.4,0,2.1,0.6,2.1,1.9s-0.7,1.9-2.1,1.9
				h-7.6v14.8c0,2.3,0.5,4,1.4,5.2c1,1.2,2.5,1.8,4.7,1.8c0.8,0,1.4-0.1,1.9-0.2c0.5-0.2,1-0.2,1.4-0.2s0.7,0.1,0.9,0.4
				c0.2,0.3,0.4,0.8,0.4,1.4c0,0.5-0.1,0.9-0.3,1.3c-0.2,0.4-0.5,0.7-0.9,0.8c-0.5,0.2-1.1,0.3-1.9,0.5
				C1222.8,1662,1222.1,1662.1,1221.4,1662.1z"/>
			<path class="st2" d="M1243.6,1662.1c-4.6,0-8.2-1.4-10.9-4.1c-2.7-2.7-4-6.4-4-11c0-3,0.6-5.7,1.8-8c1.2-2.3,2.9-4.1,5-5.3
				c2.1-1.3,4.5-1.9,7.3-1.9c4,0,7.1,1.3,9.3,3.8c2.2,2.5,3.4,6,3.4,10.5c0,1.2-0.7,1.9-2.1,1.9h-19.9c0.2,3.3,1.1,5.9,2.9,7.6
				s4.2,2.6,7.3,2.6c1.3,0,2.7-0.2,4-0.5c1.4-0.3,2.7-1,4-1.8c0.9-0.6,1.7-0.7,2.3-0.4c0.6,0.4,0.9,0.9,1,1.7c0,0.7-0.4,1.4-1.2,2
				c-1.3,1-2.9,1.7-4.7,2.2C1247.1,1661.8,1245.3,1662.1,1243.6,1662.1z M1242.8,1635.4c-2.8,0-4.9,0.9-6.5,2.6s-2.5,4-2.8,6.8h17.7
				c-0.1-3-0.9-5.3-2.3-6.9C1247.4,1636.2,1245.4,1635.4,1242.8,1635.4z"/>
			<path class="st2" d="M1264.9,1661.9c-1.6,0-2.5-0.8-2.5-2.5v-25c0-1.6,0.8-2.5,2.3-2.5c1.6,0,2.4,0.8,2.4,2.5v3.2
				c0.8-1.8,2-3.3,3.7-4.2c1.7-1,3.7-1.5,6-1.6c1.3-0.1,2,0.5,2,1.9c0.1,1.4-0.6,2.2-2.2,2.3l-1,0.1c-2.8,0.2-4.9,1.1-6.3,2.6
				s-2.2,3.6-2.2,6.2v14.5C1267.3,1661.1,1266.5,1661.9,1264.9,1661.9z"/>
			<path class="st2" d="M1301.8,1661.9c-1.6,0-2.4-0.8-2.4-2.5v-38.2c0-1.6,0.8-2.5,2.4-2.5s2.5,0.8,2.5,2.5v15.9
				c1-1.8,2.3-3.1,4.1-4c1.7-0.9,3.7-1.4,5.9-1.4c6.9,0,10.4,3.8,10.4,11.5v16.1c0,1.7-0.8,2.5-2.4,2.5s-2.5-0.8-2.5-2.5v-15.8
				c0-2.7-0.5-4.7-1.6-6s-2.8-1.9-5.1-1.9c-2.7,0-4.8,0.8-6.4,2.5s-2.4,3.9-2.4,6.6v14.5C1304.3,1661.1,1303.4,1661.9,1301.8,1661.9
				z"/>
			<path class="st2" d="M1346.6,1662.1c-4.6,0-8.2-1.4-10.9-4.1c-2.7-2.7-4-6.4-4-11c0-3,0.6-5.7,1.8-8c1.2-2.3,2.9-4.1,5-5.3
				c2.1-1.3,4.5-1.9,7.3-1.9c4,0,7.1,1.3,9.3,3.8c2.2,2.5,3.4,6,3.4,10.5c0,1.2-0.7,1.9-2.1,1.9h-19.9c0.2,3.3,1.1,5.9,2.9,7.6
				s4.2,2.6,7.3,2.6c1.3,0,2.7-0.2,4-0.5c1.4-0.3,2.7-1,4-1.8c0.9-0.6,1.7-0.7,2.3-0.4c0.6,0.4,0.9,0.9,1,1.7c0,0.7-0.4,1.4-1.2,2
				c-1.3,1-2.9,1.7-4.7,2.2C1350.1,1661.8,1348.4,1662.1,1346.6,1662.1z M1345.9,1635.4c-2.8,0-4.9,0.9-6.5,2.6s-2.5,4-2.8,6.8h17.7
				c-0.1-3-0.9-5.3-2.3-6.9C1350.5,1636.2,1348.5,1635.4,1345.9,1635.4z"/>
			<path class="st2" d="M1374.6,1662.1c-2,0-3.8-0.4-5.4-1.2c-1.6-0.8-2.8-1.9-3.8-3.2c-0.9-1.4-1.4-2.9-1.4-4.6
				c0-2.1,0.5-3.8,1.7-5c1.1-1.2,2.9-2.1,5.5-2.7c2.5-0.5,6-0.8,10.4-0.8h1.9v-1.9c0-2.5-0.5-4.3-1.5-5.4s-2.7-1.7-4.9-1.7
				c-1.4,0-2.8,0.2-4.2,0.5c-1.4,0.4-2.9,0.9-4.4,1.7c-0.7,0.4-1.3,0.4-1.7,0.2c-0.5-0.2-0.8-0.6-1-1.1s-0.2-1,0-1.6
				c0.2-0.5,0.6-1,1.2-1.2c1.7-0.9,3.5-1.5,5.2-1.9s3.4-0.6,5-0.6c3.8,0,6.6,0.9,8.4,2.8c1.8,1.8,2.7,4.7,2.7,8.6v16.3
				c0,1.7-0.7,2.5-2.2,2.5c-1.6,0-2.3-0.8-2.3-2.5v-2.9c-0.8,1.7-1.9,3.1-3.5,4.1C1378.6,1661.6,1376.8,1662.1,1374.6,1662.1z
				 M1375.4,1658.4c2.4,0,4.4-0.8,5.9-2.5s2.3-3.8,2.3-6.3v-1.8h-1.9c-3.2,0-5.8,0.2-7.7,0.5c-1.9,0.3-3.2,0.8-3.9,1.6
				c-0.7,0.7-1.1,1.8-1.1,3c0,1.6,0.6,3,1.7,4C1371.9,1657.9,1373.4,1658.4,1375.4,1658.4z"/>
			<path class="st2" d="M1406.2,1662.1c-2.9,0-5.1-0.9-6.6-2.6s-2.3-4.3-2.3-7.6v-30.6c0-1.6,0.8-2.5,2.4-2.5s2.5,0.8,2.5,2.5v30.3
				c0,4.3,1.7,6.4,5.1,6.4c0.4,0,0.7,0,1-0.1c0.3,0,0.6-0.1,0.8-0.1c0.4,0,0.8,0.1,0.9,0.3c0.2,0.2,0.3,0.7,0.3,1.4
				c0,1.4-0.7,2.1-2,2.3c-0.3,0.1-0.7,0.1-1,0.2C1406.8,1662.1,1406.5,1662.1,1406.2,1662.1z"/>
			<path class="st2" d="M1426.2,1662.1c-3.4,0-6-0.9-7.7-2.7c-1.7-1.8-2.6-4.5-2.6-7.9v-15.3h-4c-1.4,0-2.1-0.6-2.1-1.9
				c0-1.2,0.7-1.9,2.1-1.9h4v-6.9c0-1.6,0.8-2.5,2.5-2.5c1.6,0,2.4,0.8,2.4,2.5v6.9h7.6c1.4,0,2.1,0.6,2.1,1.9s-0.7,1.9-2.1,1.9
				h-7.6v14.8c0,2.3,0.5,4,1.4,5.2c1,1.2,2.5,1.8,4.7,1.8c0.8,0,1.4-0.1,1.9-0.2c0.5-0.2,1-0.2,1.4-0.2s0.7,0.1,0.9,0.4
				c0.2,0.3,0.4,0.8,0.4,1.4c0,0.5-0.1,0.9-0.3,1.3c-0.2,0.4-0.5,0.7-0.9,0.8c-0.5,0.2-1.1,0.3-1.9,0.5
				C1427.6,1662,1426.9,1662.1,1426.2,1662.1z"/>
			<path class="st2" d="M1438.3,1661.9c-1.6,0-2.4-0.8-2.4-2.5v-38.2c0-1.6,0.8-2.5,2.4-2.5s2.5,0.8,2.5,2.5v15.9
				c1-1.8,2.3-3.1,4.1-4c1.7-0.9,3.7-1.4,5.9-1.4c6.9,0,10.4,3.8,10.4,11.5v16.1c0,1.7-0.8,2.5-2.4,2.5s-2.5-0.8-2.5-2.5v-15.8
				c0-2.7-0.5-4.7-1.6-6s-2.8-1.9-5.1-1.9c-2.7,0-4.8,0.8-6.4,2.5s-2.4,3.9-2.4,6.6v14.5C1440.7,1661.1,1439.9,1661.9,1438.3,1661.9
				z"/>
		</g>
	</g>
</g>
<g>
	<g>
		<path id="Path_50_00000093141775221447552450000001578785437386392205_" class="st0" d="M-279.1-1202.5c-3.1-0.5-6.2-1.5-8.9-3.1
			c-0.3-0.2-0.6-0.1-0.8,0.1l-37.7,37.7l0,0c-4.8,5.3-12.9,5.7-18.2,0.9l0,0l0,0c-5.2-4.7-5.7-12.6-1.2-17.9l0.3-0.3l0.1-0.1l0,0
			c0.3-0.3,0.5-0.6,0.8-0.8l0,0l37.4-37.4c0.2-0.2,0.2-0.5,0-0.7l0,0l-6.4-6.4c-0.2-0.2-0.5-0.2-0.7,0l0,0l-37.4,37.4l0,0l-0.1,0.1
			l-0.2,0.2c-5.1,5-13.2,4.9-18.2-0.2c-4.8-4.9-4.9-12.8-0.2-17.8c0.1-0.1,0.3-0.3,0.4-0.4l0,0l37.3-37.3c0.2-0.2,0.2-0.5,0-0.7l0,0
			l-6.4-6.4c-0.2-0.2-0.5-0.2-0.7,0l0,0l-37.7,37.7l0,0c-9,9-9,23.5,0,32.5c4.3,4.3,10.1,6.7,16.2,6.7c0.8,0,1.7,0,2.5-0.1
			c-0.1,0.8-0.1,1.7-0.1,2.5c0,12.7,10.3,23,23,23c6.1,0,11.9-2.4,16.2-6.7l0,0l41.1-41.1c0.3-0.3,0.3-0.7,0-0.9
			C-278.8-1202.4-278.9-1202.5-279.1-1202.5z"/>
		<path id="Path_50-2_00000069376957124026356520000017536041963574690188_" class="st0" d="M-383.1-1312.4c3.1,0.5,6.2,1.5,8.9,3.1
			c0.3,0.2,0.6,0.1,0.8-0.1l37.7-37.7l0,0c4.8-5.3,12.9-5.7,18.2-0.9l0,0l0,0c5.2,4.7,5.7,12.6,1.2,17.9l-0.3,0.3l-0.1,0.1l0,0
			c-0.3,0.3-0.5,0.6-0.8,0.8l0,0l-37.4,37.4c-0.2,0.2-0.2,0.5,0,0.7l0,0l6.4,6.4c0.2,0.2,0.5,0.2,0.7,0l0,0l37.4-37.4l0,0l0.1-0.1
			l0.2-0.2c5.1-5,13.2-4.9,18.2,0.2c4.8,4.9,4.9,12.8,0.2,17.8c-0.1,0.1-0.3,0.3-0.4,0.4l0,0l-37.3,37.3c-0.2,0.2-0.2,0.5,0,0.7l0,0
			l6.4,6.4c0.2,0.2,0.5,0.2,0.7,0l0,0l37.7-37.7l0,0c9-9,9-23.5,0-32.5c-4.3-4.3-10.1-6.7-16.2-6.7c-0.8,0-1.7,0-2.5,0.1
			c0.1-0.8,0.1-1.7,0.1-2.5c0-12.7-10.3-23-23-23c-6.1,0-11.9,2.4-16.2,6.7l0,0l-41.1,41.1c-0.3,0.3-0.3,0.7,0,0.9
			C-383.3-1312.5-383.2-1312.5-383.1-1312.4z"/>
		<path id="Path_75_00000150071021768004996960000003275666392550235542_" class="st1" d="M-276.1-1309.5c-0.5,3.1-1.5,6.2-3.1,8.9
			c-0.2,0.3-0.1,0.6,0.1,0.8l37.7,37.7c5.3,4.8,5.7,12.9,0.9,18.2l0,0l-0.1,0.1c-4.3,5.2-12,6-17.3,1.6c-0.3-0.2-0.6-0.5-0.9-0.8
			l0,0l-0.1-0.1l0,0c-0.3-0.3-0.6-0.5-0.8-0.8l-37.4-37.4c-0.2-0.2-0.5-0.2-0.7,0l0,0l-6.4,6.4c-0.2,0.2-0.2,0.5,0,0.7l0,0
			l37.4,37.4l0.1,0.1l0.2,0.2c5,5.1,4.9,13.2-0.2,18.2c-4.9,4.8-12.8,4.9-17.8,0.2c-0.1-0.1-0.3-0.3-0.4-0.4l-34.2-34.2l-13.6-13.6
			l-37.7-37.7c-9-9-23.5-9-32.5,0c-4.3,4.3-6.7,10.1-6.7,16.2c0,0.8,0,1.7,0.1,2.5c-0.8-0.1-1.7-0.1-2.5-0.1c-12.7,0-23,10.3-23,23
			c0,6.1,2.4,11.9,6.7,16.2l41.1,41.1c0.3,0.3,0.7,0.3,0.9,0c0.1-0.1,0.2-0.2,0.2-0.4c0.5-3.1,1.5-6.2,3.1-8.9
			c0.2-0.3,0.1-0.6-0.1-0.8l-37.7-37.7c-5.3-4.8-5.7-12.9-0.9-18.2l0,0l0,0c4.8-4.8,12.5-5.3,18-1.1l0.2,0.2l0.1,0.1l0,0
			c0.3,0.3,0.6,0.5,0.8,0.8l37.4,37.4c0.2,0.2,0.5,0.2,0.7,0l6.4-6.4c0.2-0.2,0.2-0.5,0-0.7l-37.4-37.4l-0.1-0.1l-0.2-0.2
			c-5-5.1-4.9-13.2,0.2-18.2c4.9-4.8,12.8-4.9,17.8-0.2c0.1,0.1,0.3,0.3,0.4,0.4l37.1,37.1l13.8,13.8l34.6,34.6c9,9,23.5,9,32.5,0
			c4.3-4.3,6.7-10.1,6.7-16.2c0-0.8,0-1.7-0.1-2.5c0.8,0.1,1.7,0.1,2.5,0.1c12.7,0,23-10.3,23-23c0-6.1-2.4-11.9-6.7-16.2
			l-41.1-41.1c-0.3-0.3-0.7-0.3-0.9,0C-276-1309.7-276.1-1309.6-276.1-1309.5z"/>
		<g>
			<g>
				<g>
					<path class="st0" d="M-104.3-1313c-1.8,0-3.2,0.4-4.2,1.1s-1.9,1.8-2.7,3.4l-39.2,74.2l-39.4-74.2c-0.8-1.6-1.8-2.7-2.8-3.4
						c-1-0.7-2.4-1.1-4.1-1.1c-4.1,0-6.2,2.2-6.2,6.5v98c0,4.3,2.1,6.5,6.2,6.5c4,0,6-2.2,6-6.5v-77.8l34.4,63.7
						c0.6,1.3,1.4,2.2,2.3,2.9c0.9,0.7,2.1,1,3.6,1s2.7-0.3,3.5-0.9s1.6-1.6,2.3-3l34-63.9v78c0,4.3,2.1,6.5,6.2,6.5
						s6.2-2.2,6.2-6.5v-98C-98.3-1310.8-100.3-1313-104.3-1313z"/>
					<path class="st0" d="M-15.5-1242.9c0-11.4-2.9-20.5-8.7-27s-13.9-9.9-24-9.9c-7.1,0-13.4,1.6-18.8,4.9
						c-5.4,3.2-9.7,7.9-12.8,13.8c-3.1,5.9-4.6,12.8-4.6,20.5c0,11.9,3.5,21.4,10.4,28.4c6.9,6.9,16.4,10.5,28.2,10.5
						c4.4,0,9-0.7,13.7-2s8.8-3.3,12.1-5.7c2.2-1.5,3.4-3.3,3.3-5.3s-0.9-3.5-2.6-4.5s-3.8-0.7-6.3,0.9c-3.2,2.2-6.6,3.8-10,4.6
						c-3.4,0.9-6.9,1.3-10.2,1.3c-7.8,0-14-2.2-18.5-6.6c-4.3-4.3-6.8-10.6-7.2-18.8h50.4C-17.4-1237.8-15.5-1239.5-15.5-1242.9z
						 M-71.4-1246.6c0.8-6.9,3.1-12.5,7.1-16.7c4-4.3,9.5-6.5,16.4-6.5c6.5,0,11.6,2.1,15.1,6.2c3.5,4,5.4,9.8,5.8,17H-71.4z"/>
					<path class="st0" d="M56-1313c-4.4,0-6.6,2.2-6.6,6.6v39.9c-2.2-3.9-5.3-7.1-9.4-9.4c-4.5-2.6-9.7-3.9-15.6-3.9
						c-6.7,0-12.6,1.6-17.6,4.7s-8.9,7.7-11.6,13.5s-4.1,12.8-4.1,20.8c0,7.9,1.4,14.8,4.1,20.6c2.7,5.8,6.6,10.4,11.6,13.6
						s10.9,4.8,17.6,4.8c5.9,0,11.1-1.3,15.6-4c4.1-2.4,7.3-5.6,9.5-9.7v6.5c0,4.5,2.2,6.8,6.5,6.8s6.5-2.3,6.5-6.8v-97.5
						C62.5-1310.8,60.3-1313,56-1313z M49.7-1240.7c0,9.1-2.1,16.1-6.2,21c-4.1,4.8-9.6,7.3-16.4,7.3c-6.9,0-12.5-2.5-16.5-7.3
						c-4.1-4.9-6.1-11.9-6.1-21c0-9.2,2.1-16.3,6.1-21.1c4-4.8,9.6-7.2,16.5-7.2c6.8,0,12.3,2.4,16.4,7.2S49.7-1249.9,49.7-1240.7z"
						/>
					<path class="st0" d="M85.6-1295.6c5.6,0,8.5-2.7,8.5-8c0-5.2-2.9-7.9-8.5-7.9s-8.5,2.6-8.5,7.9
						C77.1-1298.3,80-1295.6,85.6-1295.6z"/>
					<path class="st0" d="M85.6-1279.1c-4.3,0-6.5,2.3-6.5,6.9v62.7c0,4.7,2.2,7.1,6.5,7.1c4.4,0,6.6-2.4,6.6-7.1v-62.7
						C92.3-1276.8,90-1279.1,85.6-1279.1z"/>
				</g>
				<g>
					<path class="st1" d="M180.7-1259c5-2,9-5,11.9-8.9c3.1-4.2,4.7-9.4,4.7-15.4c0-9-3.1-16-9.3-21c-6.1-5-14.9-7.5-26.1-7.5h-36.3
						c-4.8,0-7.3,2.4-7.3,7.3v94.3c0,4.8,2.4,7.3,7.3,7.3h38.2c11.4,0,20.3-2.6,26.6-7.7c6.3-5.2,9.5-12.7,9.5-22.4
						c0-6.8-1.8-12.5-5.4-16.9C191.1-1254.3,186.5-1257.3,180.7-1259z M186.7-1233.4c0,13.1-7.9,19.4-24.2,19.4h-31.2v-38.8h31.2
						C178.8-1252.8,186.7-1246.4,186.7-1233.4z M131.3-1263.6v-37.5h28.8c16.2,0,24,6.2,24,18.8c0,12.6-7.9,18.7-24,18.7H131.3z"/>
					<path class="st1" d="M271.2-1279.4c-4.4,0-6.6,2.2-6.6,6.6v37.1c0,6.9-2,12.5-5.9,16.7c-3.9,4.1-9,6.3-15.2,6.3
						c-5.7,0-9.9-1.6-12.5-4.6c-2.6-3.1-4-8-4-14.5v-40.9c0-4.4-2.2-6.6-6.6-6.6c-4.3,0-6.5,2.2-6.5,6.6v41.1
						c0,19.9,9.1,29.9,27.2,29.9c5.3,0,10.2-1.2,14.5-3.6c3.9-2.2,7-5.3,9.4-9.3v5.8c0,4.5,2.2,6.8,6.5,6.8c4.2,0,6.3-2.3,6.3-6.8
						v-63.9C277.7-1277.2,275.5-1279.4,271.2-1279.4z"/>
					<path class="st1" d="M354.6-1313c-4.4,0-6.6,2.2-6.6,6.6v39.9c-2.2-3.9-5.3-7.1-9.4-9.4c-4.5-2.6-9.7-3.9-15.6-3.9
						c-6.7,0-12.6,1.6-17.6,4.7s-8.9,7.7-11.6,13.5s-4.1,12.8-4.1,20.8c0,7.9,1.4,14.8,4.1,20.6c2.7,5.8,6.6,10.4,11.6,13.6
						s10.9,4.8,17.6,4.8c5.9,0,11.1-1.3,15.6-4c4.1-2.4,7.3-5.6,9.5-9.7v6.5c0,4.5,2.2,6.8,6.5,6.8s6.5-2.3,6.5-6.8v-97.5
						C361.1-1310.8,358.9-1313,354.6-1313z M348.3-1240.7c0,9.1-2.1,16.1-6.2,21c-4.1,4.8-9.6,7.3-16.4,7.3
						c-6.9,0-12.5-2.5-16.5-7.3c-4.1-4.9-6.1-11.9-6.1-21c0-9.2,2.1-16.3,6.1-21.1c4-4.8,9.6-7.2,16.5-7.2c6.8,0,12.3,2.4,16.4,7.2
						C346.2-1257,348.3-1249.9,348.3-1240.7z"/>
					<path class="st1" d="M438-1313c-4.4,0-6.6,2.2-6.6,6.6v39.9c-2.2-3.9-5.3-7.1-9.4-9.4c-4.5-2.6-9.7-3.9-15.6-3.9
						c-6.7,0-12.6,1.6-17.6,4.7s-8.9,7.7-11.6,13.5s-4.1,12.8-4.1,20.8c0,7.9,1.4,14.8,4.1,20.6c2.7,5.8,6.6,10.4,11.6,13.6
						s10.9,4.8,17.6,4.8c5.9,0,11.1-1.3,15.6-4c4.1-2.4,7.3-5.6,9.5-9.7v6.5c0,4.5,2.2,6.8,6.5,6.8s6.5-2.3,6.5-6.8v-97.5
						C444.5-1310.8,442.3-1313,438-1313z M431.7-1240.7c0,9.1-2.1,16.1-6.2,21c-4.1,4.8-9.6,7.3-16.4,7.3c-6.9,0-12.5-2.5-16.5-7.3
						c-4.1-4.9-6.1-11.9-6.1-21c0-9.2,2.1-16.3,6.1-21.1c4.1-4.8,9.6-7.2,16.5-7.2c6.8,0,12.3,2.4,16.4,7.2
						S431.7-1249.9,431.7-1240.7z"/>
					<path class="st1" d="M524.5-1276.6c-0.9-1.9-2.6-2.8-5.1-2.8c-1.8,0-3.2,0.4-4.2,1.1c-1,0.8-1.9,2.1-2.7,4l-23,55.8l-22.8-55.8
						c-1.4-3.4-3.6-5.1-6.6-5.1c-2.9,0-4.9,0.9-5.9,2.8c-1,1.8-1,4,0.1,6.4l28.1,65.5l-9.3,21c-1,2.3-1,4.5-0.1,6.3
						c0.9,1.9,2.6,2.9,5.1,2.9c1.8,0,3.2-0.4,4.3-1.1c1-0.7,2-2.1,2.8-4l39.2-90.8C525.3-1272.7,525.4-1274.8,524.5-1276.6z"/>
				</g>
			</g>
		</g>
		<g>
			<path class="st1" d="M549.6-1277.6c-2.5,0-4.7-0.4-6.8-1.3s-3.9-2.1-5.5-3.7s-2.8-3.4-3.7-5.5s-1.3-4.4-1.3-6.8s0.4-4.7,1.3-6.8
				c0.9-2.1,2.1-3.9,3.7-5.5c1.6-1.6,3.4-2.8,5.5-3.7c2.1-0.9,4.4-1.3,6.8-1.3c2.5,0,4.7,0.4,6.8,1.3s3.9,2.1,5.5,3.7
				s2.8,3.4,3.7,5.5s1.3,4.4,1.3,6.8s-0.4,4.7-1.3,6.8c-0.9,2.1-2.1,3.9-3.7,5.5c-1.6,1.6-3.4,2.8-5.5,3.7
				C554.3-1278,552-1277.6,549.6-1277.6z M549.6-1280.1c2.8,0,5.3-0.7,7.5-2s3.9-3.1,5.2-5.3c1.3-2.2,1.9-4.7,1.9-7.5
				s-0.6-5.3-1.9-7.5c-1.3-2.2-3-4-5.2-5.3s-4.7-1.9-7.5-1.9s-5.3,0.6-7.5,1.9s-4,3.1-5.2,5.3c-1.3,2.2-1.9,4.7-1.9,7.5
				s0.6,5.3,1.9,7.5c1.3,2.2,3,4,5.2,5.3C544.2-1280.7,546.8-1280.1,549.6-1280.1z"/>
			<g>
				<path class="st1" d="M543.1-1289.1c-0.4,0-0.7-0.1-0.9-0.3c-0.2-0.2-0.3-0.5-0.3-0.9v-8.1H539c-0.7,0-1-0.3-1-1s0.3-1,1-1h8.2
					c0.7,0,1,0.3,1,1s-0.3,1-1,1h-2.8v8.1c0,0.4-0.1,0.7-0.3,0.9C543.8-1289.2,543.5-1289.1,543.1-1289.1z"/>
				<path class="st1" d="M550.5-1289.1c-0.4,0-0.6-0.1-0.8-0.3c-0.2-0.2-0.3-0.5-0.3-0.9v-9.3c0-0.4,0.1-0.7,0.3-0.9
					c0.2-0.2,0.5-0.3,0.9-0.3c0.3,0,0.6,0.1,0.8,0.2s0.4,0.3,0.5,0.6l3.4,6.3l3.4-6.3c0.2-0.3,0.3-0.5,0.5-0.6s0.4-0.2,0.7-0.2
					c0.4,0,0.6,0.1,0.8,0.3c0.2,0.2,0.3,0.5,0.3,0.9v9.3c0,0.8-0.4,1.2-1.1,1.2c-0.8,0-1.1-0.4-1.1-1.2v-5.9l-2.6,4.7
					c-0.1,0.2-0.3,0.4-0.4,0.5c-0.1,0.1-0.3,0.2-0.6,0.2c-0.2,0-0.4-0.1-0.6-0.2c-0.2-0.1-0.3-0.3-0.4-0.5l-2.6-4.7v5.9
					C551.6-1289.5,551.2-1289.1,550.5-1289.1z"/>
			</g>
		</g>
	</g>
	<g>
		<g>
			<path class="st2" d="M-418-1092.5c-1.6,0-2.5-0.9-2.5-2.6v-17.8l-14-19.2c-0.6-0.8-0.7-1.5-0.3-2.3c0.3-0.8,1-1.2,2-1.2
				s1.9,0.5,2.7,1.6l12.2,16.8l12.1-16.8c0.8-1.1,1.7-1.6,2.7-1.6s1.6,0.4,1.9,1.1s0.2,1.6-0.4,2.4l-14,19.3v17.7
				C-415.5-1093.3-416.3-1092.5-418-1092.5z"/>
			<path class="st2" d="M-388.1-1092.3c-2.8,0-5.3-0.6-7.4-1.9c-2.1-1.2-3.7-3-4.8-5.3c-1.1-2.3-1.7-4.9-1.7-8s0.6-5.8,1.7-8
				c1.1-2.3,2.8-4,4.8-5.3c2.1-1.2,4.5-1.9,7.4-1.9c2.8,0,5.3,0.6,7.4,1.9c2.1,1.2,3.7,3,4.9,5.3c1.1,2.3,1.7,4.9,1.7,8
				s-0.6,5.8-1.7,8c-1.1,2.3-2.8,4-4.9,5.3C-382.9-1093-385.3-1092.3-388.1-1092.3z M-388.1-1096.2c2.7,0,4.9-1,6.5-2.9
				s2.5-4.7,2.5-8.3c0-3.6-0.8-6.4-2.5-8.3c-1.6-1.9-3.8-2.9-6.5-2.9c-2.8,0-5,1-6.6,2.9s-2.4,4.7-2.4,8.3c0,3.6,0.8,6.4,2.4,8.3
				S-390.9-1096.2-388.1-1096.2z"/>
			<path class="st2" d="M-356.5-1092.3c-7,0-10.5-3.9-10.5-11.6v-16.1c0-1.6,0.8-2.5,2.4-2.5s2.5,0.8,2.5,2.5v16
				c0,2.6,0.5,4.5,1.6,5.8c1.1,1.2,2.7,1.9,5,1.9c2.5,0,4.5-0.8,6.1-2.5s2.3-3.9,2.3-6.6v-14.5c0-1.6,0.8-2.5,2.5-2.5
				c1.6,0,2.4,0.8,2.4,2.5v25c0,1.7-0.8,2.5-2.3,2.5c-1.6,0-2.4-0.8-2.4-2.5v-2.8c-0.9,1.8-2.2,3.1-3.9,4.1
				C-352.6-1092.8-354.5-1092.3-356.5-1092.3z"/>
			<path class="st2" d="M-330.7-1092.5c-1.6,0-2.5-0.8-2.5-2.5v-25c0-1.6,0.8-2.5,2.3-2.5c1.6,0,2.4,0.8,2.4,2.5v3.2
				c0.8-1.8,2-3.3,3.7-4.2c1.7-1,3.7-1.5,6-1.6c1.3-0.1,2,0.5,2,1.9c0.1,1.4-0.6,2.2-2.2,2.3l-1,0.1c-2.8,0.2-4.9,1.1-6.3,2.6
				s-2.2,3.6-2.2,6.2v14.5C-328.3-1093.3-329.1-1092.5-330.7-1092.5z"/>
			<path class="st2" d="M-284.5-1092.3c-3.4,0-6-0.9-7.7-2.7c-1.7-1.8-2.6-4.5-2.6-7.9v-15.3h-4c-1.4,0-2.1-0.6-2.1-1.9
				c0-1.2,0.7-1.9,2.1-1.9h4v-6.9c0-1.6,0.8-2.5,2.5-2.5c1.6,0,2.4,0.8,2.4,2.5v6.9h7.6c1.4,0,2.1,0.6,2.1,1.9s-0.7,1.9-2.1,1.9
				h-7.6v14.8c0,2.3,0.5,4,1.4,5.2c1,1.2,2.5,1.8,4.7,1.8c0.8,0,1.4-0.1,1.9-0.2c0.5-0.2,1-0.2,1.4-0.2s0.7,0.1,0.9,0.4
				c0.2,0.3,0.4,0.8,0.4,1.4c0,0.5-0.1,0.9-0.3,1.3c-0.2,0.4-0.5,0.7-0.9,0.8c-0.5,0.2-1.1,0.3-1.9,0.5
				C-283.1-1092.4-283.8-1092.3-284.5-1092.3z"/>
			<path class="st2" d="M-272.7-1092.5c-1.6,0-2.5-0.8-2.5-2.5v-25c0-1.6,0.8-2.5,2.3-2.5c1.6,0,2.4,0.8,2.4,2.5v3.2
				c0.8-1.8,2-3.3,3.7-4.2c1.7-1,3.7-1.5,6-1.6c1.3-0.1,2,0.5,2,1.9c0.1,1.4-0.6,2.2-2.2,2.3l-1,0.1c-2.8,0.2-4.9,1.1-6.3,2.6
				s-2.2,3.6-2.2,6.2v14.5C-270.2-1093.3-271.1-1092.5-272.7-1092.5z"/>
			<path class="st2" d="M-243.3-1092.3c-7,0-10.5-3.9-10.5-11.6v-16.1c0-1.6,0.8-2.5,2.4-2.5c1.6,0,2.5,0.8,2.5,2.5v16
				c0,2.6,0.5,4.5,1.6,5.8c1.1,1.2,2.7,1.9,5,1.9c2.5,0,4.5-0.8,6.1-2.5s2.3-3.9,2.3-6.6v-14.5c0-1.6,0.8-2.5,2.5-2.5
				c1.6,0,2.4,0.8,2.4,2.5v25c0,1.7-0.8,2.5-2.3,2.5c-1.6,0-2.4-0.8-2.4-2.5v-2.8c-0.9,1.8-2.2,3.1-3.9,4.1
				C-239.4-1092.8-241.3-1092.3-243.3-1092.3z"/>
			<path class="st2" d="M-210.1-1092.3c-1.8,0-3.6-0.2-5.4-0.7c-1.8-0.5-3.5-1.2-5.1-2.3c-0.7-0.4-1.1-1-1.1-1.7s0.3-1.3,0.8-1.7
				c0.5-0.4,1.2-0.4,2,0c1.6,1,3.1,1.6,4.5,2c1.5,0.4,2.9,0.6,4.4,0.6c2.3,0,4-0.4,5.2-1.3c1.2-0.8,1.7-2,1.7-3.4
				c0-1.1-0.4-2-1.1-2.7c-0.8-0.7-2-1.2-3.6-1.5l-5.5-1.2c-5-1.1-7.4-3.6-7.4-7.7c0-2.6,1.1-4.8,3.2-6.4c2.1-1.6,4.9-2.4,8.3-2.4
				c1.7,0,3.4,0.2,5,0.7s3,1.2,4.3,2.2c0.7,0.5,1,1.1,0.9,1.7c-0.1,0.7-0.4,1.2-0.9,1.6s-1.2,0.3-2-0.2c-1.2-0.8-2.4-1.4-3.7-1.8
				c-1.2-0.4-2.5-0.6-3.7-0.6c-2.2,0-3.9,0.4-5.1,1.3c-1.2,0.9-1.7,2-1.7,3.5c0,2.2,1.5,3.7,4.4,4.3l5.5,1.1
				c2.6,0.6,4.5,1.5,5.8,2.7s2,2.9,2,5c0,2.7-1.1,4.8-3.2,6.3C-203.8-1093.1-206.6-1092.3-210.1-1092.3z"/>
			<path class="st2" d="M-179.7-1092.3c-3.4,0-6-0.9-7.7-2.7c-1.7-1.8-2.6-4.5-2.6-7.9v-15.3h-4c-1.4,0-2.1-0.6-2.1-1.9
				c0-1.2,0.7-1.9,2.1-1.9h4v-6.9c0-1.6,0.8-2.5,2.5-2.5c1.6,0,2.4,0.8,2.4,2.5v6.9h7.6c1.4,0,2.1,0.6,2.1,1.9s-0.7,1.9-2.1,1.9
				h-7.6v14.8c0,2.3,0.5,4,1.4,5.2c1,1.2,2.5,1.8,4.7,1.8c0.8,0,1.4-0.1,1.9-0.2c0.5-0.2,1-0.2,1.4-0.2s0.7,0.1,0.9,0.4
				s0.4,0.8,0.4,1.4c0,0.5-0.1,0.9-0.3,1.3s-0.5,0.7-0.9,0.8c-0.5,0.2-1.1,0.3-1.9,0.5C-178.3-1092.4-179.1-1092.3-179.7-1092.3z"/>
			<path class="st2" d="M-157.5-1092.3c-4.6,0-8.2-1.4-10.9-4.1s-4-6.4-4-11c0-3,0.6-5.7,1.8-8s2.9-4.1,5-5.3
				c2.1-1.3,4.5-1.9,7.3-1.9c4,0,7.1,1.3,9.3,3.8s3.4,6,3.4,10.5c0,1.2-0.7,1.9-2.1,1.9h-19.9c0.2,3.3,1.1,5.9,2.9,7.6
				c1.8,1.7,4.2,2.6,7.3,2.6c1.3,0,2.7-0.2,4-0.5c1.4-0.3,2.7-1,4-1.8c0.9-0.6,1.7-0.7,2.3-0.4c0.6,0.4,0.9,0.9,1,1.7
				c0,0.7-0.4,1.4-1.2,2c-1.3,1-2.9,1.7-4.7,2.2C-154-1092.6-155.8-1092.3-157.5-1092.3z M-158.3-1119c-2.8,0-4.9,0.9-6.5,2.6
				s-2.5,4-2.8,6.8h17.7c-0.1-3-0.9-5.3-2.3-6.9C-153.7-1118.2-155.7-1119-158.3-1119z"/>
			<path class="st2" d="M-127.6-1092.3c-2.6,0-4.9-0.6-6.8-1.9c-1.9-1.2-3.4-3-4.5-5.3s-1.6-4.9-1.6-8s0.5-5.8,1.6-8.1
				c1.1-2.3,2.6-4,4.5-5.2s4.2-1.8,6.8-1.8c2.3,0,4.3,0.5,6,1.5s3,2.4,3.9,4.1v-16.2c0-1.6,0.8-2.5,2.5-2.5c1.6,0,2.4,0.8,2.4,2.5
				v38.2c0,1.7-0.8,2.5-2.4,2.5s-2.4-0.8-2.4-2.5v-3.1c-0.9,1.8-2.2,3.2-3.9,4.2C-123.3-1092.9-125.3-1092.3-127.6-1092.3z
				 M-126.6-1096.2c2.7,0,4.9-1,6.5-2.9s2.5-4.7,2.5-8.3c0-3.6-0.8-6.4-2.5-8.3c-1.6-1.9-3.8-2.9-6.5-2.9c-2.8,0-5,1-6.6,2.9
				c-1.6,1.9-2.4,4.7-2.4,8.3c0,3.6,0.8,6.4,2.4,8.3S-129.4-1096.2-126.6-1096.2z"/>
			<path class="st2" d="M-73.5-1092.3c-2.3,0-4.3-0.5-6.1-1.5c-1.8-1-3.1-2.4-3.9-4.2v3.1c0,1.7-0.8,2.5-2.4,2.5s-2.4-0.8-2.4-2.5
				v-38.2c0-1.6,0.8-2.5,2.4-2.5s2.5,0.8,2.5,2.5v16.2c0.8-1.7,2.1-3.1,3.9-4.1s3.8-1.5,6-1.5c2.6,0,4.9,0.6,6.8,1.8
				c1.9,1.2,3.4,3,4.5,5.2c1.1,2.3,1.6,5,1.6,8.1s-0.5,5.8-1.6,8c-1.1,2.3-2.6,4-4.5,5.3C-68.6-1093-70.9-1092.3-73.5-1092.3z
				 M-74.5-1096.2c2.7,0,4.9-1,6.5-2.9s2.5-4.7,2.5-8.3c0-3.6-0.8-6.4-2.5-8.3c-1.6-1.9-3.8-2.9-6.5-2.9s-4.9,1-6.5,2.9
				s-2.5,4.7-2.5,8.3c0,3.6,0.8,6.4,2.5,8.3C-79.4-1097.2-77.2-1096.2-74.5-1096.2z"/>
			<path class="st2" d="M-42.9-1092.3c-7,0-10.5-3.9-10.5-11.6v-16.1c0-1.6,0.8-2.5,2.4-2.5c1.6,0,2.5,0.8,2.5,2.5v16
				c0,2.6,0.5,4.5,1.6,5.8c1.1,1.2,2.7,1.9,5,1.9c2.5,0,4.5-0.8,6.1-2.5s2.3-3.9,2.3-6.6v-14.5c0-1.6,0.8-2.5,2.5-2.5
				c1.6,0,2.4,0.8,2.4,2.5v25c0,1.7-0.8,2.5-2.3,2.5c-1.6,0-2.4-0.8-2.4-2.5v-2.8c-0.9,1.8-2.2,3.1-3.9,4.1
				C-38.9-1092.8-40.8-1092.3-42.9-1092.3z"/>
			<path class="st2" d="M-8.4-1092.3c-2.6,0-4.9-0.6-6.8-1.9c-1.9-1.2-3.4-3-4.5-5.3s-1.6-4.9-1.6-8s0.5-5.8,1.6-8.1
				c1.1-2.3,2.6-4,4.5-5.2s4.2-1.8,6.8-1.8c2.3,0,4.3,0.5,6,1.5s3,2.4,3.9,4.1v-16.2c0-1.6,0.8-2.5,2.5-2.5c1.6,0,2.4,0.8,2.4,2.5
				v38.2c0,1.7-0.8,2.5-2.4,2.5s-2.4-0.8-2.4-2.5v-3.1c-0.9,1.8-2.2,3.2-3.9,4.2C-4.1-1092.9-6.1-1092.3-8.4-1092.3z M-7.4-1096.2
				c2.7,0,4.9-1,6.5-2.9s2.5-4.7,2.5-8.3c0-3.6-0.8-6.4-2.5-8.3c-1.6-1.9-3.8-2.9-6.5-2.9c-2.8,0-5,1-6.6,2.9s-2.4,4.7-2.4,8.3
				c0,3.6,0.8,6.4,2.4,8.3S-10.2-1096.2-7.4-1096.2z"/>
			<path class="st2" d="M26.6-1092.3c-2.6,0-4.9-0.6-6.8-1.9c-1.9-1.2-3.4-3-4.5-5.3s-1.6-4.9-1.6-8s0.5-5.8,1.6-8.1
				c1.1-2.3,2.6-4,4.5-5.2s4.2-1.8,6.8-1.8c2.3,0,4.3,0.5,6,1.5s3,2.4,3.9,4.1v-16.2c0-1.6,0.8-2.5,2.5-2.5c1.6,0,2.4,0.8,2.4,2.5
				v38.2c0,1.7-0.8,2.5-2.4,2.5s-2.4-0.8-2.4-2.5v-3.1c-0.9,1.8-2.2,3.2-3.9,4.2C30.9-1092.9,28.9-1092.3,26.6-1092.3z M27.6-1096.2
				c2.7,0,4.9-1,6.5-2.9s2.5-4.7,2.5-8.3c0-3.6-0.8-6.4-2.5-8.3c-1.6-1.9-3.8-2.9-6.5-2.9c-2.8,0-5,1-6.6,2.9s-2.4,4.7-2.4,8.3
				c0,3.6,0.8,6.4,2.4,8.3C22.6-1097.2,24.8-1096.2,27.6-1096.2z"/>
			<path class="st2" d="M57-1081.7c-0.9,0-1.5-0.4-1.9-1.1c-0.3-0.7-0.3-1.5,0.1-2.4l3.7-8.3l-11-25.7c-0.4-0.9-0.4-1.7,0-2.4
				c0.4-0.7,1.1-1,2.2-1c1.1,0,1.9,0.6,2.5,1.9l9.1,22.2l9.1-22.2c0.3-0.7,0.7-1.2,1-1.5c0.4-0.3,0.9-0.4,1.6-0.4
				c0.9,0,1.5,0.3,1.9,1c0.3,0.7,0.3,1.5-0.1,2.3l-15.4,35.5c-0.3,0.7-0.7,1.2-1.1,1.5C58.2-1081.8,57.6-1081.7,57-1081.7z"/>
			<path class="st2" d="M100.8-1092.5c-1.6,0-2.4-0.8-2.4-2.5v-23.3h-3.8c-1.4,0-2.1-0.6-2.1-1.9c0-1.2,0.7-1.9,2.1-1.9h3.8v-1
				c0-7.5,3.7-11.5,11-12.2l1.7-0.2c0.7,0,1.2,0.1,1.6,0.5c0.3,0.4,0.5,0.8,0.5,1.3s-0.1,1-0.4,1.4s-0.7,0.6-1.2,0.7l-1.4,0.1
				c-2.4,0.2-4.2,0.9-5.3,2.2c-1.1,1.3-1.7,3.2-1.7,5.6v1.6h6.5c1.4,0,2.1,0.6,2.1,1.9s-0.7,1.9-2.1,1.9h-6.5v23.3
				C103.3-1093.3,102.4-1092.5,100.8-1092.5z"/>
			<path class="st2" d="M128.1-1092.3c-2.8,0-5.3-0.6-7.4-1.9c-2.1-1.2-3.7-3-4.8-5.3c-1.1-2.3-1.7-4.9-1.7-8s0.6-5.8,1.7-8
				c1.1-2.3,2.8-4,4.8-5.3c2.1-1.2,4.5-1.9,7.4-1.9c2.8,0,5.3,0.6,7.4,1.9c2.1,1.2,3.7,3,4.9,5.3c1.1,2.3,1.7,4.9,1.7,8
				s-0.6,5.8-1.7,8c-1.1,2.3-2.8,4-4.9,5.3C133.4-1093,130.9-1092.3,128.1-1092.3z M128.1-1096.2c2.7,0,4.9-1,6.5-2.9
				s2.5-4.7,2.5-8.3c0-3.6-0.8-6.4-2.5-8.3c-1.6-1.9-3.8-2.9-6.5-2.9c-2.8,0-5,1-6.6,2.9s-2.4,4.7-2.4,8.3c0,3.6,0.8,6.4,2.4,8.3
				C123.2-1097.2,125.4-1096.2,128.1-1096.2z"/>
			<path class="st2" d="M151.8-1092.5c-1.6,0-2.5-0.8-2.5-2.5v-25c0-1.6,0.8-2.5,2.3-2.5c1.6,0,2.4,0.8,2.4,2.5v3.2
				c0.8-1.8,2-3.3,3.7-4.2c1.7-1,3.7-1.5,6-1.6c1.3-0.1,2,0.5,2,1.9c0.1,1.4-0.6,2.2-2.2,2.3l-1,0.1c-2.8,0.2-4.9,1.1-6.3,2.6
				c-1.4,1.5-2.2,3.6-2.2,6.2v14.5C154.3-1093.3,153.5-1092.5,151.8-1092.5z"/>
			<path class="st2" d="M201.1-1092.3c-2.3,0-4.3-0.5-6.1-1.5s-3.1-2.4-3.9-4.2v3.1c0,1.7-0.8,2.5-2.4,2.5s-2.4-0.8-2.4-2.5v-38.2
				c0-1.6,0.8-2.5,2.4-2.5c1.6,0,2.5,0.8,2.5,2.5v16.2c0.8-1.7,2.1-3.1,3.9-4.1c1.8-1,3.8-1.5,6-1.5c2.6,0,4.9,0.6,6.8,1.8
				c1.9,1.2,3.4,3,4.5,5.2c1.1,2.3,1.6,5,1.6,8.1s-0.5,5.8-1.6,8c-1.1,2.3-2.6,4-4.5,5.3C206-1093,203.7-1092.3,201.1-1092.3z
				 M200.1-1096.2c2.7,0,4.9-1,6.5-2.9s2.5-4.7,2.5-8.3c0-3.6-0.8-6.4-2.5-8.3c-1.6-1.9-3.8-2.9-6.5-2.9s-4.9,1-6.5,2.9
				s-2.5,4.7-2.5,8.3c0,3.6,0.8,6.4,2.5,8.3C195.2-1097.2,197.4-1096.2,200.1-1096.2z"/>
			<path class="st2" d="M234.5-1092.3c-4.6,0-8.2-1.4-10.9-4.1s-4-6.4-4-11c0-3,0.6-5.7,1.8-8s2.9-4.1,5-5.3
				c2.1-1.3,4.5-1.9,7.3-1.9c4,0,7.1,1.3,9.3,3.8s3.4,6,3.4,10.5c0,1.2-0.7,1.9-2.1,1.9h-19.9c0.2,3.3,1.1,5.9,2.9,7.6
				c1.8,1.7,4.2,2.6,7.3,2.6c1.3,0,2.7-0.2,4-0.5c1.4-0.3,2.7-1,4-1.8c0.9-0.6,1.7-0.7,2.3-0.4c0.6,0.4,0.9,0.9,1,1.7
				c0,0.7-0.4,1.4-1.2,2c-1.3,1-2.9,1.7-4.7,2.2C238-1092.6,236.2-1092.3,234.5-1092.3z M233.7-1119c-2.8,0-4.9,0.9-6.5,2.6
				s-2.5,4-2.8,6.8h17.7c-0.1-3-0.9-5.3-2.3-6.9C238.4-1118.2,236.3-1119,233.7-1119z"/>
			<path class="st2" d="M265-1092.3c-3.4,0-6-0.9-7.7-2.7c-1.7-1.8-2.6-4.5-2.6-7.9v-15.3h-4c-1.4,0-2.1-0.6-2.1-1.9
				c0-1.2,0.7-1.9,2.1-1.9h4v-6.9c0-1.6,0.8-2.5,2.5-2.5c1.6,0,2.4,0.8,2.4,2.5v6.9h7.6c1.4,0,2.1,0.6,2.1,1.9s-0.7,1.9-2.1,1.9
				h-7.6v14.8c0,2.3,0.5,4,1.4,5.2c1,1.2,2.5,1.8,4.7,1.8c0.8,0,1.4-0.1,1.9-0.2c0.5-0.2,1-0.2,1.4-0.2s0.7,0.1,0.9,0.4
				c0.2,0.3,0.4,0.8,0.4,1.4c0,0.5-0.1,0.9-0.3,1.3c-0.2,0.4-0.5,0.7-0.9,0.8c-0.5,0.2-1.1,0.3-1.9,0.5
				C266.4-1092.4,265.7-1092.3,265-1092.3z"/>
			<path class="st2" d="M285.3-1092.3c-3.4,0-6-0.9-7.7-2.7c-1.7-1.8-2.6-4.5-2.6-7.9v-15.3h-4c-1.4,0-2.1-0.6-2.1-1.9
				c0-1.2,0.7-1.9,2.1-1.9h4v-6.9c0-1.6,0.8-2.5,2.5-2.5c1.6,0,2.4,0.8,2.4,2.5v6.9h7.6c1.4,0,2.1,0.6,2.1,1.9s-0.7,1.9-2.1,1.9
				h-7.6v14.8c0,2.3,0.5,4,1.4,5.2c1,1.2,2.5,1.8,4.7,1.8c0.8,0,1.4-0.1,1.9-0.2c0.5-0.2,1-0.2,1.4-0.2s0.7,0.1,0.9,0.4
				c0.2,0.3,0.4,0.8,0.4,1.4c0,0.5-0.1,0.9-0.3,1.3c-0.2,0.4-0.5,0.7-0.9,0.8c-0.5,0.2-1.1,0.3-1.9,0.5
				C286.6-1092.4,285.9-1092.3,285.3-1092.3z"/>
			<path class="st2" d="M307.4-1092.3c-4.6,0-8.2-1.4-10.9-4.1c-2.7-2.7-4-6.4-4-11c0-3,0.6-5.7,1.8-8c1.2-2.3,2.9-4.1,5-5.3
				c2.1-1.3,4.5-1.9,7.3-1.9c4,0,7.1,1.3,9.3,3.8c2.2,2.5,3.4,6,3.4,10.5c0,1.2-0.7,1.9-2.1,1.9h-19.9c0.2,3.3,1.1,5.9,2.9,7.6
				s4.2,2.6,7.3,2.6c1.3,0,2.7-0.2,4-0.5c1.4-0.3,2.7-1,4-1.8c0.9-0.6,1.7-0.7,2.3-0.4c0.6,0.4,0.9,0.9,1,1.7c0,0.7-0.4,1.4-1.2,2
				c-1.3,1-2.9,1.7-4.7,2.2C310.9-1092.6,309.1-1092.3,307.4-1092.3z M306.6-1119c-2.8,0-4.9,0.9-6.5,2.6s-2.5,4-2.8,6.8H315
				c-0.1-3-0.9-5.3-2.3-6.9C311.3-1118.2,309.2-1119,306.6-1119z"/>
			<path class="st2" d="M328.7-1092.5c-1.6,0-2.5-0.8-2.5-2.5v-25c0-1.6,0.8-2.5,2.3-2.5c1.6,0,2.4,0.8,2.4,2.5v3.2
				c0.8-1.8,2-3.3,3.7-4.2c1.7-1,3.7-1.5,6-1.6c1.3-0.1,2,0.5,2,1.9c0.1,1.4-0.6,2.2-2.2,2.3l-1,0.1c-2.8,0.2-4.9,1.1-6.3,2.6
				s-2.2,3.6-2.2,6.2v14.5C331.1-1093.3,330.3-1092.5,328.7-1092.5z"/>
			<path class="st2" d="M365.6-1092.5c-1.6,0-2.4-0.8-2.4-2.5v-38.2c0-1.6,0.8-2.5,2.4-2.5s2.5,0.8,2.5,2.5v15.9
				c1-1.8,2.3-3.1,4.1-4c1.7-0.9,3.7-1.4,5.9-1.4c6.9,0,10.4,3.8,10.4,11.5v16.1c0,1.7-0.8,2.5-2.4,2.5s-2.5-0.8-2.5-2.5v-15.8
				c0-2.7-0.5-4.7-1.6-6s-2.8-1.9-5.1-1.9c-2.7,0-4.8,0.8-6.4,2.5s-2.4,3.9-2.4,6.6v14.5C368.1-1093.3,367.3-1092.5,365.6-1092.5z"
				/>
			<path class="st2" d="M410.5-1092.3c-4.6,0-8.2-1.4-10.9-4.1c-2.7-2.7-4-6.4-4-11c0-3,0.6-5.7,1.8-8c1.2-2.3,2.9-4.1,5-5.3
				c2.1-1.3,4.5-1.9,7.3-1.9c4,0,7.1,1.3,9.3,3.8c2.2,2.5,3.4,6,3.4,10.5c0,1.2-0.7,1.9-2.1,1.9h-19.9c0.2,3.3,1.1,5.9,2.9,7.6
				s4.2,2.6,7.3,2.6c1.3,0,2.7-0.2,4-0.5c1.4-0.3,2.7-1,4-1.8c0.9-0.6,1.7-0.7,2.3-0.4c0.6,0.4,0.9,0.9,1,1.7c0,0.7-0.4,1.4-1.2,2
				c-1.3,1-2.9,1.7-4.7,2.2C414-1092.6,412.2-1092.3,410.5-1092.3z M409.7-1119c-2.8,0-4.9,0.9-6.5,2.6s-2.5,4-2.8,6.8H418
				c-0.1-3-0.9-5.3-2.3-6.9C414.3-1118.2,412.3-1119,409.7-1119z"/>
			<path class="st2" d="M438.5-1092.3c-2,0-3.8-0.4-5.4-1.2c-1.6-0.8-2.8-1.9-3.8-3.2c-0.9-1.4-1.4-2.9-1.4-4.6c0-2.1,0.5-3.8,1.7-5
				c1.1-1.2,2.9-2.1,5.5-2.7c2.5-0.5,6-0.8,10.4-0.8h1.9v-1.9c0-2.5-0.5-4.3-1.5-5.4s-2.7-1.7-4.9-1.7c-1.4,0-2.8,0.2-4.2,0.5
				c-1.4,0.4-2.9,0.9-4.4,1.7c-0.7,0.4-1.3,0.4-1.7,0.2c-0.5-0.2-0.8-0.6-1-1.1s-0.2-1,0-1.6c0.2-0.5,0.6-1,1.2-1.2
				c1.7-0.9,3.5-1.5,5.2-1.9s3.4-0.6,5-0.6c3.8,0,6.6,0.9,8.4,2.8c1.8,1.8,2.7,4.7,2.7,8.6v16.3c0,1.7-0.7,2.5-2.2,2.5
				c-1.6,0-2.3-0.8-2.3-2.5v-2.9c-0.8,1.7-1.9,3.1-3.5,4.1C442.4-1092.8,440.6-1092.3,438.5-1092.3z M439.2-1096
				c2.4,0,4.4-0.8,5.9-2.5s2.3-3.8,2.3-6.3v-1.8h-1.9c-3.2,0-5.8,0.2-7.7,0.5c-1.9,0.3-3.2,0.8-3.9,1.6c-0.7,0.7-1.1,1.8-1.1,3
				c0,1.6,0.6,3,1.7,4C435.7-1096.5,437.3-1096,439.2-1096z"/>
			<path class="st2" d="M470-1092.3c-2.9,0-5.1-0.9-6.6-2.6s-2.3-4.3-2.3-7.6v-30.6c0-1.6,0.8-2.5,2.4-2.5s2.5,0.8,2.5,2.5v30.3
				c0,4.3,1.7,6.4,5.1,6.4c0.4,0,0.7,0,1-0.1c0.3,0,0.6-0.1,0.8-0.1c0.4,0,0.8,0.1,0.9,0.3c0.2,0.2,0.3,0.7,0.3,1.4
				c0,1.4-0.7,2.1-2,2.3c-0.3,0.1-0.7,0.1-1,0.2C470.6-1092.4,470.3-1092.3,470-1092.3z"/>
			<path class="st2" d="M490-1092.3c-3.4,0-6-0.9-7.7-2.7c-1.7-1.8-2.6-4.5-2.6-7.9v-15.3h-4c-1.4,0-2.1-0.6-2.1-1.9
				c0-1.2,0.7-1.9,2.1-1.9h4v-6.9c0-1.6,0.8-2.5,2.5-2.5c1.6,0,2.4,0.8,2.4,2.5v6.9h7.6c1.4,0,2.1,0.6,2.1,1.9s-0.7,1.9-2.1,1.9
				h-7.6v14.8c0,2.3,0.5,4,1.4,5.2c1,1.2,2.5,1.8,4.7,1.8c0.8,0,1.4-0.1,1.9-0.2c0.5-0.2,1-0.2,1.4-0.2s0.7,0.1,0.9,0.4
				c0.2,0.3,0.4,0.8,0.4,1.4c0,0.5-0.1,0.9-0.3,1.3c-0.2,0.4-0.5,0.7-0.9,0.8c-0.5,0.2-1.1,0.3-1.9,0.5
				C491.4-1092.4,490.7-1092.3,490-1092.3z"/>
			<path class="st2" d="M502.1-1092.5c-1.6,0-2.4-0.8-2.4-2.5v-38.2c0-1.6,0.8-2.5,2.4-2.5s2.5,0.8,2.5,2.5v15.9
				c1-1.8,2.3-3.1,4.1-4c1.7-0.9,3.7-1.4,5.9-1.4c6.9,0,10.4,3.8,10.4,11.5v16.1c0,1.7-0.8,2.5-2.4,2.5c-1.6,0-2.5-0.8-2.5-2.5
				v-15.8c0-2.7-0.5-4.7-1.6-6s-2.8-1.9-5.1-1.9c-2.7,0-4.8,0.8-6.4,2.5s-2.4,3.9-2.4,6.6v14.5
				C504.6-1093.3,503.8-1092.5,502.1-1092.5z"/>
		</g>
	</g>
</g>
<g>
	<g>
		<path id="Path_50_00000085958117778013247920000003097857331987773615_" class="st0" d="M185.5,194.3c-3.1-0.5-6.2-1.5-8.9-3.1
			c-0.3-0.2-0.6-0.1-0.8,0.1L138.1,229l0,0c-4.8,5.3-12.9,5.7-18.2,0.9l0,0l0,0c-5.2-4.7-5.7-12.6-1.2-17.9l0.3-0.3l0.1-0.1l0,0
			c0.3-0.3,0.5-0.6,0.8-0.8l0,0l37.4-37.4c0.2-0.2,0.2-0.5,0-0.7l0,0l-6.4-6.4c-0.2-0.2-0.5-0.2-0.7,0l0,0l-37.4,37.4l0,0l-0.1,0.1
			l-0.2,0.2c-5.1,5-13.2,4.9-18.2-0.2c-4.8-4.9-4.9-12.8-0.2-17.8c0.1-0.1,0.3-0.3,0.4-0.4l0,0l37.3-37.3c0.2-0.2,0.2-0.5,0-0.7l0,0
			l-6.4-6.4c-0.2-0.2-0.5-0.2-0.7,0l0,0L87,178.7l0,0c-9,9-9,23.5,0,32.5c4.3,4.3,10.1,6.7,16.2,6.7c0.8,0,1.7,0,2.5-0.1
			c-0.1,0.8-0.1,1.7-0.1,2.5c0,12.7,10.3,23,23,23c6.1,0,11.9-2.4,16.2-6.7l0,0l41.1-41.1c0.3-0.3,0.3-0.7,0-0.9
			C185.8,194.4,185.6,194.4,185.5,194.3z"/>
		<path id="Path_50-2_00000134939097072795003500000012095278482773809085_" class="st0" d="M81.5,84.4c3.1,0.5,6.2,1.5,8.9,3.1
			c0.3,0.2,0.6,0.1,0.8-0.1l37.7-37.7l0,0c4.8-5.3,12.9-5.7,18.2-0.9l0,0l0,0c5.2,4.7,5.7,12.6,1.2,17.9L148,67l-0.1,0.1l0,0
			c-0.3,0.3-0.5,0.6-0.8,0.8l0,0l-37.4,37.4c-0.2,0.2-0.2,0.5,0,0.7l0,0l6.4,6.4c0.2,0.2,0.5,0.2,0.7,0l0,0L154.2,75l0,0l0.1-0.1
			l0.2-0.2c5.1-5,13.2-4.9,18.2,0.2c4.8,4.9,4.9,12.8,0.2,17.8c-0.1,0.1-0.3,0.3-0.4,0.4l0,0l-37.3,37.3c-0.2,0.2-0.2,0.5,0,0.7l0,0
			l6.4,6.4c0.2,0.2,0.5,0.2,0.7,0l0,0L180,100l0,0c9-9,9-23.5,0-32.5c-4.3-4.3-10.1-6.7-16.2-6.7c-0.8,0-1.7,0-2.5,0.1
			c0.1-0.8,0.1-1.7,0.1-2.5c0-12.7-10.3-23-23-23c-6.1,0-11.9,2.4-16.2,6.7l0,0L81.1,83.3c-0.3,0.3-0.3,0.7,0,0.9
			C81.2,84.3,81.4,84.4,81.5,84.4z"/>
		<path id="Path_75_00000135652878445633359500000015129675701995559830_" class="st1" d="M188.5,87.3c-0.5,3.1-1.5,6.2-3.1,8.9
			c-0.2,0.3-0.1,0.6,0.1,0.8l37.7,37.7c5.3,4.8,5.7,12.9,0.9,18.2l0,0L224,153c-4.3,5.2-12,6-17.3,1.6c-0.3-0.2-0.6-0.5-0.9-0.8l0,0
			l-0.1-0.1l0,0c-0.3-0.3-0.6-0.5-0.8-0.8l-37.4-37.4c-0.2-0.2-0.5-0.2-0.7,0l0,0l-6.4,6.4c-0.2,0.2-0.2,0.5,0,0.7l0,0l37.4,37.4
			l0.1,0.1l0.2,0.2c5,5.1,4.9,13.2-0.2,18.2c-4.9,4.8-12.8,4.9-17.8,0.2c-0.1-0.1-0.3-0.3-0.4-0.4l-34.2-34.2l-13.6-13.6L94.1,92.8
			c-9-9-23.5-9-32.5,0C57.4,97.2,55,103,55,109.1c0,0.8,0,1.7,0.1,2.5c-0.8-0.1-1.7-0.1-2.5-0.1c-12.7,0-23,10.3-23,23
			c0,6.1,2.4,11.9,6.7,16.2l41.1,41.1c0.3,0.3,0.7,0.3,0.9,0c0.1-0.1,0.2-0.2,0.2-0.4c0.5-3.1,1.5-6.2,3.1-8.9
			c0.2-0.3,0.1-0.6-0.1-0.8L43.8,144c-5.3-4.8-5.7-12.9-0.9-18.2l0,0l0,0c4.8-4.8,12.5-5.3,18-1.1l0.2,0.2l0.1,0.1l0,0
			c0.3,0.3,0.6,0.5,0.8,0.8l37.4,37.4c0.2,0.2,0.5,0.2,0.7,0l6.4-6.4c0.2-0.2,0.2-0.5,0-0.7l-37.4-37.4l-0.1-0.1l-0.2-0.2
			c-5-5.1-4.9-13.2,0.2-18.2c4.9-4.8,12.8-4.9,17.8-0.2c0.1,0.1,0.3,0.3,0.4,0.4l37.1,37.1l13.8,13.8l34.6,34.6c9,9,23.5,9,32.5,0
			c4.3-4.3,6.7-10.1,6.7-16.2c0-0.8,0-1.7-0.1-2.5c0.8,0.1,1.7,0.1,2.5,0.1c12.7,0,23-10.3,23-23c0-6.1-2.4-11.9-6.7-16.2l-41-41.1
			c-0.3-0.3-0.7-0.3-0.9,0C188.6,87.1,188.5,87.2,188.5,87.3z"/>
		<g>
			<g>
				<g>
					<path class="st0" d="M360.2,83.8c-1.8,0-3.2,0.4-4.2,1.1s-1.9,1.8-2.7,3.4l-39.2,74.2l-39.4-74.2c-0.8-1.6-1.8-2.7-2.8-3.4
						c-1-0.7-2.4-1.1-4.1-1.1c-4.1,0-6.2,2.2-6.2,6.5v98c0,4.3,2.1,6.5,6.2,6.5c4,0,6-2.2,6-6.5v-77.8l34.4,63.7
						c0.6,1.3,1.4,2.2,2.3,2.9s2.1,1,3.6,1s2.7-0.3,3.5-0.9c0.8-0.6,1.6-1.6,2.3-3l34-63.9v78c0,4.3,2.1,6.5,6.2,6.5
						s6.2-2.2,6.2-6.5v-98C366.3,86,364.2,83.8,360.2,83.8z"/>
					<path class="st0" d="M449.1,153.9c0-11.4-2.9-20.5-8.7-27c-5.8-6.5-13.9-9.9-24-9.9c-7.1,0-13.4,1.6-18.8,4.9
						c-5.4,3.2-9.7,7.9-12.8,13.8c-3.1,5.9-4.6,12.8-4.6,20.5c0,11.9,3.5,21.4,10.4,28.4c6.9,6.9,16.4,10.5,28.2,10.5
						c4.4,0,9-0.7,13.7-2s8.8-3.3,12.1-5.7c2.2-1.5,3.4-3.3,3.3-5.3s-0.9-3.5-2.6-4.5s-3.8-0.7-6.3,0.9c-3.2,2.2-6.6,3.8-10,4.6
						c-3.4,0.9-6.9,1.3-10.2,1.3c-7.8,0-14-2.2-18.5-6.6c-4.3-4.3-6.8-10.6-7.2-18.8h50.4C447.1,159,449.1,157.3,449.1,153.9z
						 M393.1,150.2c0.8-6.9,3.1-12.5,7.1-16.7c4-4.3,9.5-6.5,16.4-6.5c6.5,0,11.6,2.1,15.1,6.2c3.5,4,5.4,9.8,5.8,17H393.1z"/>
					<path class="st0" d="M520.6,83.8c-4.4,0-6.6,2.2-6.6,6.6v39.9c-2.2-3.9-5.3-7.1-9.4-9.4c-4.5-2.6-9.7-3.9-15.6-3.9
						c-6.7,0-12.6,1.6-17.6,4.7s-8.9,7.7-11.6,13.5s-4.1,12.8-4.1,20.8c0,7.9,1.4,14.8,4.1,20.6s6.6,10.4,11.6,13.6
						c5,3.2,10.9,4.8,17.6,4.8c5.9,0,11.1-1.3,15.6-4c4.1-2.4,7.3-5.6,9.5-9.7v6.5c0,4.5,2.2,6.8,6.5,6.8s6.5-2.3,6.5-6.8V90.5
						C527.1,86.1,524.9,83.8,520.6,83.8z M514.3,156.1c0,9.1-2.1,16.1-6.2,21c-4.1,4.9-9.6,7.3-16.4,7.3c-6.9,0-12.5-2.5-16.5-7.3
						c-4.1-4.9-6.1-11.9-6.1-21c0-9.2,2.1-16.3,6.1-21.1s9.6-7.2,16.5-7.2c6.8,0,12.3,2.4,16.4,7.2
						C512.2,139.8,514.3,146.9,514.3,156.1z"/>
					<path class="st0" d="M550.2,101.3c5.6,0,8.5-2.7,8.5-8c0-5.2-2.9-7.9-8.5-7.9s-8.5,2.6-8.5,7.9
						C541.7,98.6,544.5,101.3,550.2,101.3z"/>
					<path class="st0" d="M550.2,117.7c-4.3,0-6.5,2.3-6.5,6.9v62.7c0,4.7,2.2,7.1,6.5,7.1c4.4,0,6.6-2.4,6.6-7.1v-62.7
						C556.8,120,554.6,117.7,550.2,117.7z"/>
				</g>
				<g>
					<path class="st1" d="M645.3,137.8c5-2,9-5,11.9-8.9c3.1-4.2,4.7-9.4,4.7-15.4c0-9-3.1-16-9.3-21c-6.1-5-14.9-7.5-26.1-7.5
						h-36.3c-4.8,0-7.3,2.4-7.3,7.3v94.3c0,4.8,2.4,7.3,7.3,7.3h38.2c11.4,0,20.3-2.6,26.6-7.7c6.3-5.2,9.5-12.7,9.5-22.4
						c0-6.8-1.8-12.5-5.4-16.9C655.7,142.5,651.1,139.5,645.3,137.8z M651.3,163.4c0,13.1-7.9,19.4-24.2,19.4h-31.2V144h31.2
						C643.4,144,651.3,150.4,651.3,163.4z M595.9,133.2V95.7h28.8c16.2,0,24,6.2,24,18.8s-7.9,18.7-24,18.7H595.9z"/>
					<path class="st1" d="M735.8,117.4c-4.4,0-6.6,2.2-6.6,6.6v37.1c0,6.9-2,12.5-5.9,16.7c-3.9,4.1-9,6.3-15.2,6.3
						c-5.7,0-9.9-1.6-12.5-4.6c-2.6-3.1-4-8-4-14.5v-41c0-4.4-2.2-6.6-6.6-6.6c-4.3,0-6.5,2.2-6.5,6.6v41.1
						c0,19.9,9.1,29.9,27.2,29.9c5.3,0,10.2-1.2,14.5-3.6c3.9-2.2,7-5.3,9.4-9.3v5.8c0,4.5,2.2,6.8,6.5,6.8c4.2,0,6.3-2.3,6.3-6.8
						V124C742.3,119.6,740.1,117.4,735.8,117.4z"/>
					<path class="st1" d="M819.2,83.8c-4.4,0-6.6,2.2-6.6,6.6v39.9c-2.2-3.9-5.3-7.1-9.4-9.4c-4.5-2.6-9.7-3.9-15.6-3.9
						c-6.7,0-12.6,1.6-17.6,4.7s-8.9,7.7-11.6,13.5c-2.7,5.8-4.1,12.8-4.1,20.8c0,7.9,1.4,14.8,4.1,20.6c2.7,5.8,6.6,10.4,11.6,13.6
						c5,3.2,10.9,4.8,17.6,4.8c5.9,0,11.1-1.3,15.6-4c4.1-2.4,7.3-5.6,9.5-9.7v6.5c0,4.5,2.2,6.8,6.5,6.8s6.5-2.3,6.5-6.8V90.5
						C825.7,86.1,823.5,83.8,819.2,83.8z M812.9,156.1c0,9.1-2.1,16.1-6.2,21c-4.1,4.9-9.6,7.3-16.4,7.3c-6.9,0-12.5-2.5-16.5-7.3
						c-4.1-4.9-6.1-11.9-6.1-21c0-9.2,2.1-16.3,6.1-21.1s9.6-7.2,16.5-7.2c6.8,0,12.3,2.4,16.4,7.2
						C810.8,139.8,812.9,146.9,812.9,156.1z"/>
					<path class="st1" d="M902.6,83.8c-4.4,0-6.6,2.2-6.6,6.6v39.9c-2.2-3.9-5.3-7.1-9.4-9.4c-4.5-2.6-9.7-3.9-15.6-3.9
						c-6.7,0-12.6,1.6-17.6,4.7s-8.9,7.7-11.6,13.5c-2.7,5.8-4.1,12.8-4.1,20.8c0,7.9,1.4,14.8,4.1,20.6c2.7,5.8,6.6,10.4,11.6,13.6
						c5,3.2,10.9,4.8,17.6,4.8c5.9,0,11.1-1.3,15.6-4c4.1-2.4,7.3-5.6,9.5-9.7v6.5c0,4.5,2.2,6.8,6.5,6.8s6.5-2.3,6.5-6.8V90.5
						C909.1,86.1,906.9,83.8,902.6,83.8z M896.2,156.1c0,9.1-2.1,16.1-6.2,21c-4.1,4.9-9.6,7.3-16.4,7.3c-6.9,0-12.5-2.5-16.5-7.3
						c-4.1-4.9-6.1-11.9-6.1-21c0-9.2,2.1-16.3,6.1-21.1c4.1-4.8,9.6-7.2,16.5-7.2c6.8,0,12.3,2.4,16.4,7.2
						C894.2,139.8,896.2,146.9,896.2,156.1z"/>
					<path class="st1" d="M989.1,120.2c-0.9-1.9-2.6-2.8-5.1-2.8c-1.8,0-3.2,0.4-4.2,1.1c-1,0.8-1.9,2.1-2.7,4l-23,55.8l-22.8-55.8
						c-1.4-3.4-3.6-5.1-6.6-5.1c-2.9,0-4.9,0.9-5.9,2.8c-1,1.8-1,4,0.1,6.4l28.1,65.5l-9.3,21c-1,2.3-1,4.5-0.1,6.3
						c0.9,1.9,2.6,2.9,5.1,2.9c1.8,0,3.2-0.4,4.3-1.1c1-0.7,2-2.1,2.8-4l39.2-90.8C989.9,124.2,989.9,122,989.1,120.2z"/>
				</g>
			</g>
		</g>
	</g>
	<g>
		<path class="st2" d="M273.9,267.4c-1.2,0-1.8-0.6-1.8-1.9v-12.9L262,238.7c-0.4-0.6-0.5-1.1-0.2-1.7s0.7-0.8,1.5-0.8
			s1.4,0.4,2,1.2l8.8,12.1l8.8-12.1c0.6-0.8,1.2-1.2,2-1.2c0.7,0,1.2,0.3,1.4,0.8c0.2,0.5,0.1,1.1-0.3,1.8l-10.1,13.9v12.8
			C275.7,266.7,275.1,267.4,273.9,267.4z"/>
		<path class="st2" d="M295.5,267.5c-2.1,0-3.8-0.4-5.3-1.3s-2.7-2.2-3.5-3.8c-0.8-1.6-1.2-3.6-1.2-5.8c0-2.2,0.4-4.2,1.2-5.8
			c0.8-1.6,2-2.9,3.5-3.8c1.5-0.9,3.3-1.3,5.3-1.3s3.8,0.4,5.3,1.3c1.5,0.9,2.7,2.2,3.5,3.8s1.2,3.6,1.2,5.8c0,2.2-0.4,4.2-1.2,5.8
			c-0.8,1.6-2,2.9-3.5,3.8C299.3,267,297.5,267.5,295.5,267.5z M295.5,264.6c2,0,3.5-0.7,4.7-2.1s1.8-3.4,1.8-6s-0.6-4.6-1.8-6
			c-1.2-1.4-2.8-2.1-4.7-2.1c-2,0-3.6,0.7-4.8,2.1c-1.2,1.4-1.8,3.4-1.8,6s0.6,4.6,1.8,6S293.5,264.6,295.5,264.6z"/>
		<path class="st2" d="M318.4,267.5c-5.1,0-7.6-2.8-7.6-8.4v-11.6c0-1.2,0.6-1.8,1.7-1.8c1.2,0,1.8,0.6,1.8,1.8V259
			c0,1.9,0.4,3.3,1.2,4.2c0.8,0.9,2,1.3,3.6,1.3c1.8,0,3.3-0.6,4.4-1.8c1.1-1.2,1.7-2.8,1.7-4.8v-10.5c0-1.2,0.6-1.8,1.8-1.8
			c1.2,0,1.7,0.6,1.7,1.8v18.1c0,1.2-0.6,1.8-1.7,1.8c-1.2,0-1.7-0.6-1.7-1.8v-2c-0.7,1.3-1.6,2.3-2.8,2.9
			C321.2,267.1,319.9,267.5,318.4,267.5z"/>
		<path class="st2" d="M337,267.4c-1.2,0-1.8-0.6-1.8-1.8v-18.1c0-1.2,0.6-1.8,1.7-1.8c1.2,0,1.7,0.6,1.7,1.8v2.3
			c0.6-1.3,1.5-2.4,2.7-3.1c1.2-0.7,2.7-1.1,4.3-1.2c0.9-0.1,1.4,0.4,1.5,1.4s-0.4,1.6-1.6,1.7l-0.7,0.1c-2,0.2-3.5,0.8-4.6,1.9
			c-1,1.1-1.6,2.6-1.6,4.5v10.5C338.8,266.8,338.2,267.4,337,267.4z"/>
		<path class="st2" d="M371.8,267.4c-1.2,0-1.8-0.6-1.8-1.9v-26h-9.8c-1.1,0-1.7-0.5-1.7-1.6c0-1,0.6-1.5,1.7-1.5h23.2
			c1.1,0,1.7,0.5,1.7,1.5s-0.6,1.6-1.7,1.6h-9.8v26C373.6,266.8,373,267.4,371.8,267.4z"/>
		<path class="st2" d="M386.7,267.4c-1.2,0-1.8-0.6-1.8-1.8v-18.1c0-1.2,0.6-1.8,1.7-1.8c1.2,0,1.7,0.6,1.7,1.8v2.3
			c0.6-1.3,1.5-2.4,2.7-3.1c1.2-0.7,2.7-1.1,4.3-1.2c0.9-0.1,1.4,0.4,1.5,1.4s-0.4,1.6-1.6,1.7l-0.7,0.1c-2,0.2-3.5,0.8-4.6,1.9
			c-1,1.1-1.6,2.6-1.6,4.5v10.5C388.5,266.8,387.9,267.4,386.7,267.4z"/>
		<path class="st2" d="M407.9,267.5c-5.1,0-7.6-2.8-7.6-8.4v-11.6c0-1.2,0.6-1.8,1.7-1.8c1.2,0,1.8,0.6,1.8,1.8V259
			c0,1.9,0.4,3.3,1.2,4.2c0.8,0.9,2,1.3,3.6,1.3c1.8,0,3.3-0.6,4.4-1.8c1.1-1.2,1.7-2.8,1.7-4.8v-10.5c0-1.2,0.6-1.8,1.8-1.8
			c1.2,0,1.7,0.6,1.7,1.8v18.1c0,1.2-0.6,1.8-1.7,1.8c-1.2,0-1.7-0.6-1.7-1.8v-2c-0.7,1.3-1.6,2.3-2.8,2.9
			C410.8,267.1,409.4,267.5,407.9,267.5z"/>
		<path class="st2" d="M432,267.5c-1.3,0-2.6-0.2-3.9-0.5s-2.5-0.9-3.7-1.6c-0.5-0.3-0.8-0.7-0.8-1.2s0.2-0.9,0.6-1.2
			c0.4-0.3,0.9-0.3,1.4,0c1.1,0.7,2.2,1.2,3.3,1.5c1.1,0.3,2.1,0.4,3.2,0.4c1.7,0,2.9-0.3,3.7-0.9c0.8-0.6,1.3-1.4,1.3-2.5
			c0-0.8-0.3-1.5-0.8-1.9c-0.6-0.5-1.4-0.8-2.6-1.1l-4-0.9c-3.6-0.8-5.4-2.6-5.4-5.6c0-1.9,0.8-3.4,2.3-4.6c1.5-1.2,3.5-1.7,6-1.7
			c1.2,0,2.4,0.2,3.6,0.5s2.2,0.9,3.1,1.6c0.5,0.3,0.7,0.8,0.7,1.3c-0.1,0.5-0.3,0.9-0.7,1.2c-0.4,0.3-0.9,0.2-1.4-0.1
			c-0.9-0.6-1.8-1-2.7-1.3c-0.9-0.3-1.8-0.4-2.7-0.4c-1.6,0-2.9,0.3-3.7,1c-0.8,0.6-1.3,1.5-1.3,2.5c0,1.6,1.1,2.7,3.2,3.1l4,0.8
			c1.9,0.4,3.3,1.1,4.2,1.9c1,0.9,1.4,2.1,1.4,3.6c0,1.9-0.8,3.5-2.3,4.6C436.5,266.9,434.5,267.5,432,267.5z"/>
		<path class="st2" d="M454,267.5c-2.5,0-4.4-0.7-5.6-2s-1.9-3.2-1.9-5.7v-11.1h-2.9c-1,0-1.5-0.5-1.5-1.4s0.5-1.3,1.5-1.3h2.9v-5
			c0-1.2,0.6-1.8,1.8-1.8c1.2,0,1.7,0.6,1.7,1.8v5h5.5c1,0,1.5,0.4,1.5,1.3c0,0.9-0.5,1.4-1.5,1.4H450v10.7c0,1.7,0.3,2.9,1,3.8
			s1.8,1.3,3.4,1.3c0.6,0,1-0.1,1.4-0.2s0.7-0.2,1-0.2s0.5,0.1,0.7,0.3c0.2,0.2,0.3,0.6,0.3,1c0,0.3-0.1,0.7-0.2,1s-0.4,0.5-0.7,0.6
			c-0.3,0.1-0.8,0.2-1.4,0.3C455,267.4,454.4,267.5,454,267.5z"/>
		<path class="st2" d="M470,267.5c-3.3,0-6-1-7.9-2.9c-1.9-2-2.9-4.6-2.9-8c0-2.2,0.4-4.1,1.3-5.8s2.1-3,3.6-3.9s3.3-1.4,5.3-1.4
			c2.9,0,5.1,0.9,6.7,2.8c1.6,1.8,2.4,4.4,2.4,7.6c0,0.9-0.5,1.3-1.5,1.3h-14.4c0.1,2.4,0.8,4.2,2.1,5.5c1.3,1.3,3,1.9,5.3,1.9
			c1,0,1.9-0.1,2.9-0.4c1-0.2,1.9-0.7,2.9-1.3c0.7-0.4,1.2-0.5,1.7-0.3c0.4,0.3,0.7,0.7,0.7,1.2s-0.3,1-0.9,1.4
			c-1,0.7-2.1,1.2-3.4,1.6S471.3,267.5,470,267.5z M469.5,248.2c-2,0-3.6,0.6-4.7,1.9c-1.2,1.2-1.8,2.9-2,4.9h12.8
			c-0.1-2.1-0.6-3.8-1.7-5C472.8,248.8,471.3,248.2,469.5,248.2z"/>
		<path class="st2" d="M491.7,267.5c-1.9,0-3.5-0.4-4.9-1.3s-2.5-2.2-3.3-3.8c-0.8-1.6-1.2-3.6-1.2-5.8c0-2.3,0.4-4.2,1.2-5.8
			c0.8-1.6,1.9-2.9,3.3-3.8c1.4-0.9,3-1.3,4.9-1.3c1.7,0,3.1,0.4,4.4,1.1c1.3,0.7,2.2,1.7,2.8,3v-11.7c0-1.2,0.6-1.8,1.8-1.8
			c1.2,0,1.7,0.6,1.7,1.8v27.6c0,1.2-0.6,1.8-1.7,1.8s-1.7-0.6-1.7-1.8v-2.3c-0.6,1.3-1.6,2.3-2.8,3.1
			C494.8,267.1,493.3,267.5,491.7,267.5z M492.4,264.6c2,0,3.5-0.7,4.7-2.1s1.8-3.4,1.8-6s-0.6-4.6-1.8-6c-1.2-1.4-2.8-2.1-4.7-2.1
			c-2,0-3.6,0.7-4.8,2.1c-1.2,1.4-1.8,3.4-1.8,6s0.6,4.6,1.8,6S490.4,264.6,492.4,264.6z"/>
		<path class="st2" d="M522.6,267.1c-1.3,0-2-0.7-2-2v-26.7c0-1.3,0.7-2,2-2h10.3c3.2,0,5.6,0.7,7.3,2.1c1.7,1.4,2.6,3.4,2.6,5.9
			c0,1.7-0.4,3.1-1.3,4.3c-0.9,1.2-2.1,2.1-3.6,2.6c1.8,0.5,3.2,1.3,4.2,2.6c1,1.2,1.5,2.8,1.5,4.7c0,2.7-0.9,4.8-2.7,6.3
			c-1.8,1.4-4.3,2.2-7.5,2.2L522.6,267.1L522.6,267.1z M524.1,250.1h8.3c4.6,0,6.9-1.8,6.9-5.4c0-3.6-2.3-5.4-6.9-5.4h-8.3V250.1z
			 M524.1,264.2h9c4.6,0,7-1.9,7-5.6c0-3.7-2.3-5.6-7-5.6h-9V264.2z"/>
		<path class="st2" d="M557,267.5c-5.1,0-7.6-2.8-7.6-8.4v-11.6c0-1.2,0.6-1.8,1.7-1.8c1.2,0,1.8,0.6,1.8,1.8V259
			c0,1.9,0.4,3.3,1.2,4.2c0.8,0.9,2,1.3,3.6,1.3c1.8,0,3.3-0.6,4.4-1.8c1.1-1.2,1.7-2.8,1.7-4.8v-10.5c0-1.2,0.6-1.8,1.8-1.8
			s1.7,0.6,1.7,1.8v18.1c0,1.2-0.6,1.8-1.7,1.8c-1.2,0-1.7-0.6-1.7-1.8v-2c-0.7,1.3-1.6,2.3-2.8,2.9
			C559.9,267.1,558.5,267.5,557,267.5z"/>
		<path class="st2" d="M582,267.5c-1.9,0-3.5-0.4-4.9-1.3s-2.5-2.2-3.3-3.8c-0.8-1.6-1.2-3.6-1.2-5.8c0-2.3,0.4-4.2,1.2-5.8
			s1.9-2.9,3.3-3.8c1.4-0.9,3-1.3,4.9-1.3c1.7,0,3.1,0.4,4.4,1.1c1.3,0.7,2.2,1.7,2.8,3v-11.7c0-1.2,0.6-1.8,1.8-1.8
			s1.7,0.6,1.7,1.8v27.6c0,1.2-0.6,1.8-1.7,1.8c-1.2,0-1.7-0.6-1.7-1.8v-2.3c-0.6,1.3-1.6,2.3-2.8,3.1
			C585.1,267.1,583.6,267.5,582,267.5z M582.7,264.6c2,0,3.5-0.7,4.7-2.1s1.8-3.4,1.8-6s-0.6-4.6-1.8-6s-2.8-2.1-4.7-2.1
			c-2,0-3.6,0.7-4.8,2.1c-1.2,1.4-1.8,3.4-1.8,6s0.6,4.6,1.8,6C579.1,263.9,580.7,264.6,582.7,264.6z"/>
		<path class="st2" d="M607.3,267.5c-1.9,0-3.5-0.4-4.9-1.3s-2.5-2.2-3.3-3.8c-0.8-1.6-1.2-3.6-1.2-5.8c0-2.3,0.4-4.2,1.2-5.8
			s1.9-2.9,3.3-3.8c1.4-0.9,3-1.3,4.9-1.3c1.7,0,3.1,0.4,4.4,1.1c1.3,0.7,2.2,1.7,2.8,3v-11.7c0-1.2,0.6-1.8,1.8-1.8
			s1.7,0.6,1.7,1.8v27.6c0,1.2-0.6,1.8-1.7,1.8c-1.2,0-1.7-0.6-1.7-1.8v-2.3c-0.6,1.3-1.6,2.3-2.8,3.1
			C610.4,267.1,608.9,267.5,607.3,267.5z M608,264.6c2,0,3.5-0.7,4.7-2.1s1.8-3.4,1.8-6s-0.6-4.6-1.8-6s-2.8-2.1-4.7-2.1
			c-2,0-3.6,0.7-4.8,2.1c-1.2,1.4-1.8,3.4-1.8,6s0.6,4.6,1.8,6S606,264.6,608,264.6z"/>
		<path class="st2" d="M629.3,275.2c-0.7,0-1.1-0.3-1.3-0.8s-0.2-1.1,0-1.7l2.7-6l-8-18.6c-0.3-0.7-0.3-1.2,0-1.7s0.8-0.7,1.6-0.7
			s1.4,0.5,1.8,1.4l6.6,16l6.6-16c0.2-0.5,0.5-0.9,0.7-1.1s0.6-0.3,1.1-0.3c0.7,0,1.1,0.2,1.3,0.7s0.2,1.1,0,1.7l-11.1,25.7
			c-0.2,0.5-0.5,0.9-0.8,1.1C630.2,275.1,629.8,275.2,629.3,275.2z"/>
		<path class="st2" d="M660.5,267.4c-1.3,0-1.9-0.7-1.9-2v-27c0-1.3,0.7-2,2-2h15.8c1,0,1.5,0.5,1.5,1.5s-0.5,1.5-1.5,1.5h-14.2
			v10.7h13.3c1,0,1.6,0.5,1.6,1.5s-0.5,1.5-1.6,1.5h-13.3v12.3C662.2,266.7,661.6,267.4,660.5,267.4z"/>
		<path class="st2" d="M689.9,267.5c-2.1,0-3.8-0.4-5.3-1.3s-2.7-2.2-3.5-3.8c-0.8-1.6-1.2-3.6-1.2-5.8c0-2.2,0.4-4.2,1.2-5.8
			s2-2.9,3.5-3.8c1.5-0.9,3.3-1.3,5.3-1.3s3.8,0.4,5.3,1.3c1.5,0.9,2.7,2.2,3.5,3.8s1.2,3.6,1.2,5.8c0,2.2-0.4,4.2-1.2,5.8
			c-0.8,1.6-2,2.9-3.5,3.8C693.7,267,691.9,267.5,689.9,267.5z M689.9,264.6c2,0,3.5-0.7,4.7-2.1s1.8-3.4,1.8-6s-0.6-4.6-1.8-6
			s-2.8-2.1-4.7-2.1c-2,0-3.6,0.7-4.8,2.1c-1.2,1.4-1.8,3.4-1.8,6s0.6,4.6,1.8,6C686.3,263.9,687.9,264.6,689.9,264.6z"/>
		<path class="st2" d="M707.1,267.4c-1.2,0-1.8-0.6-1.8-1.8v-18.1c0-1.2,0.6-1.8,1.7-1.8c1.2,0,1.7,0.6,1.7,1.8v2.3
			c0.6-1.3,1.5-2.4,2.7-3.1c1.2-0.7,2.7-1.1,4.3-1.2c0.9-0.1,1.4,0.4,1.5,1.4s-0.4,1.6-1.6,1.7l-0.7,0.1c-2,0.2-3.5,0.8-4.6,1.9
			c-1,1.1-1.6,2.6-1.6,4.5v10.5C708.8,266.8,708.2,267.4,707.1,267.4z"/>
		<path class="st2" d="M734.5,267.1c-1.3,0-2-0.7-2-2v-26.7c0-1.3,0.7-2,2-2h10.3c3.2,0,5.6,0.7,7.3,2.1c1.7,1.4,2.6,3.4,2.6,5.9
			c0,1.7-0.4,3.1-1.3,4.3c-0.9,1.2-2.1,2.1-3.6,2.6c1.8,0.5,3.2,1.3,4.2,2.6c1,1.2,1.5,2.8,1.5,4.7c0,2.7-0.9,4.8-2.7,6.3
			c-1.8,1.4-4.3,2.2-7.5,2.2L734.5,267.1L734.5,267.1z M736,250.1h8.3c4.6,0,6.9-1.8,6.9-5.4c0-3.6-2.3-5.4-6.9-5.4H736V250.1z
			 M736,264.2h9c4.6,0,7-1.9,7-5.6c0-3.7-2.3-5.6-7-5.6h-9V264.2z"/>
		<path class="st2" d="M770.9,267.5c-3.3,0-6-1-7.9-2.9c-1.9-2-2.9-4.6-2.9-8c0-2.2,0.4-4.1,1.3-5.8c0.9-1.7,2.1-3,3.6-3.9
			s3.3-1.4,5.3-1.4c2.9,0,5.1,0.9,6.7,2.8c1.6,1.8,2.4,4.4,2.4,7.6c0,0.9-0.5,1.3-1.5,1.3h-14.4c0.1,2.4,0.8,4.2,2.1,5.5
			s3,1.9,5.3,1.9c1,0,1.9-0.1,2.9-0.4c1-0.2,1.9-0.7,2.9-1.3c0.7-0.4,1.2-0.5,1.7-0.3c0.4,0.3,0.7,0.7,0.7,1.2s-0.3,1-0.9,1.4
			c-1,0.7-2.1,1.2-3.4,1.6C773.5,267.3,772.2,267.5,770.9,267.5z M770.4,248.2c-2,0-3.6,0.6-4.7,1.9c-1.2,1.2-1.8,2.9-2,4.9h12.8
			c-0.1-2.1-0.6-3.8-1.7-5C773.7,248.8,772.3,248.2,770.4,248.2z"/>
		<path class="st2" d="M793,267.5c-2.5,0-4.4-0.7-5.6-2c-1.2-1.3-1.9-3.2-1.9-5.7v-11.1h-2.9c-1,0-1.5-0.5-1.5-1.4s0.5-1.3,1.5-1.3
			h2.9v-5c0-1.2,0.6-1.8,1.8-1.8s1.7,0.6,1.7,1.8v5h5.5c1,0,1.5,0.4,1.5,1.3c0,0.9-0.5,1.4-1.5,1.4H789v10.7c0,1.7,0.3,2.9,1,3.8
			s1.8,1.3,3.4,1.3c0.6,0,1-0.1,1.4-0.2s0.7-0.2,1-0.2s0.5,0.1,0.7,0.3c0.2,0.2,0.3,0.6,0.3,1c0,0.3-0.1,0.7-0.2,1
			c-0.1,0.3-0.4,0.5-0.7,0.6s-0.8,0.2-1.4,0.3C794,267.4,793.5,267.5,793,267.5z"/>
		<path class="st2" d="M807.7,267.5c-2.5,0-4.4-0.7-5.6-2c-1.2-1.3-1.9-3.2-1.9-5.7v-11.1h-2.9c-1,0-1.5-0.5-1.5-1.4
			s0.5-1.3,1.5-1.3h2.9v-5c0-1.2,0.6-1.8,1.8-1.8s1.7,0.6,1.7,1.8v5h5.5c1,0,1.5,0.4,1.5,1.3c0,0.9-0.5,1.4-1.5,1.4h-5.5v10.7
			c0,1.7,0.3,2.9,1,3.8s1.8,1.3,3.4,1.3c0.6,0,1-0.1,1.4-0.2s0.7-0.2,1-0.2s0.5,0.1,0.7,0.3c0.2,0.2,0.3,0.6,0.3,1
			c0,0.3-0.1,0.7-0.2,1c-0.1,0.3-0.4,0.5-0.7,0.6s-0.8,0.2-1.4,0.3C808.6,267.4,808.1,267.5,807.7,267.5z"/>
		<path class="st2" d="M823.7,267.5c-3.3,0-6-1-7.9-2.9c-1.9-2-2.9-4.6-2.9-8c0-2.2,0.4-4.1,1.3-5.8c0.9-1.7,2.1-3,3.6-3.9
			s3.3-1.4,5.3-1.4c2.9,0,5.1,0.9,6.7,2.8c1.6,1.8,2.4,4.4,2.4,7.6c0,0.9-0.5,1.3-1.5,1.3h-14.4c0.1,2.4,0.8,4.2,2.1,5.5
			s3,1.9,5.3,1.9c1,0,1.9-0.1,2.9-0.4c1-0.2,1.9-0.7,2.9-1.3c0.7-0.4,1.2-0.5,1.7-0.3c0.4,0.3,0.7,0.7,0.7,1.2s-0.3,1-0.9,1.4
			c-1,0.7-2.1,1.2-3.4,1.6C826.2,267.3,824.9,267.5,823.7,267.5z M823.1,248.2c-2,0-3.6,0.6-4.7,1.9c-1.2,1.2-1.8,2.9-2,4.9h12.8
			c-0.1-2.1-0.6-3.8-1.7-5C826.5,248.8,825,248.2,823.1,248.2z"/>
		<path class="st2" d="M839.1,267.4c-1.2,0-1.8-0.6-1.8-1.8v-18.1c0-1.2,0.6-1.8,1.7-1.8c1.2,0,1.7,0.6,1.7,1.8v2.3
			c0.6-1.3,1.5-2.4,2.7-3.1c1.2-0.7,2.7-1.1,4.3-1.2c0.9-0.1,1.4,0.4,1.5,1.4s-0.4,1.6-1.6,1.7l-0.7,0.1c-2,0.2-3.5,0.8-4.6,1.9
			c-1,1.1-1.6,2.6-1.6,4.5v10.5C840.9,266.8,840.3,267.4,839.1,267.4z"/>
		<path class="st2" d="M866.3,267.4c-1.2,0-1.8-0.6-1.8-1.9V238c0-1.2,0.6-1.9,1.8-1.9s1.8,0.6,1.8,1.9v12h18.4v-12
			c0-1.2,0.6-1.9,1.8-1.9s1.8,0.6,1.8,1.9v27.5c0,1.2-0.6,1.9-1.8,1.9s-1.8-0.6-1.8-1.9v-12.4h-18.4v12.4
			C868.1,266.8,867.5,267.4,866.3,267.4z"/>
		<path class="st2" d="M906.6,267.5c-3.3,0-6-1-7.9-2.9c-1.9-2-2.9-4.6-2.9-8c0-2.2,0.4-4.1,1.3-5.8c0.9-1.7,2.1-3,3.6-3.9
			s3.3-1.4,5.3-1.4c2.9,0,5.1,0.9,6.7,2.8c1.6,1.8,2.4,4.4,2.4,7.6c0,0.9-0.5,1.3-1.5,1.3h-14.4c0.1,2.4,0.8,4.2,2.1,5.5
			s3,1.9,5.3,1.9c1,0,1.9-0.1,2.9-0.4c1-0.2,1.9-0.7,2.9-1.3c0.7-0.4,1.2-0.5,1.7-0.3c0.4,0.3,0.7,0.7,0.7,1.2s-0.3,1-0.9,1.4
			c-1,0.7-2.1,1.2-3.4,1.6C909.2,267.3,907.9,267.5,906.6,267.5z M906.1,248.2c-2,0-3.6,0.6-4.7,1.9c-1.2,1.2-1.8,2.9-2,4.9h12.8
			c-0.1-2.1-0.6-3.8-1.7-5C909.4,248.8,908,248.2,906.1,248.2z"/>
		<path class="st2" d="M926.9,267.5c-1.4,0-2.7-0.3-3.9-0.8s-2-1.3-2.7-2.3s-1-2.1-1-3.3c0-1.5,0.4-2.8,1.2-3.7
			c0.8-0.9,2.1-1.5,4-1.9c1.8-0.4,4.4-0.6,7.5-0.6h1.4v-1.3c0-1.8-0.4-3.1-1.1-3.9c-0.7-0.8-1.9-1.2-3.5-1.2c-1,0-2,0.1-3.1,0.4
			c-1,0.3-2.1,0.7-3.2,1.3c-0.5,0.3-0.9,0.3-1.2,0.2c-0.3-0.2-0.6-0.4-0.7-0.8c-0.1-0.4-0.1-0.7,0-1.1c0.1-0.4,0.4-0.7,0.8-0.9
			c1.2-0.6,2.5-1.1,3.8-1.4c1.3-0.3,2.5-0.4,3.6-0.4c2.7,0,4.7,0.7,6.1,2c1.3,1.3,2,3.4,2,6.2v11.8c0,1.2-0.5,1.8-1.6,1.8
			s-1.7-0.6-1.7-1.8v-2.1c-0.6,1.2-1.4,2.2-2.5,3C929.8,267.1,928.4,267.5,926.9,267.5z M927.5,264.8c1.7,0,3.2-0.6,4.3-1.8
			c1.1-1.2,1.7-2.7,1.7-4.6v-1.3H932c-2.3,0-4.2,0.1-5.5,0.3s-2.3,0.6-2.8,1.1s-0.8,1.3-0.8,2.2c0,1.2,0.4,2.2,1.2,2.9
			C924.9,264.4,926,264.8,927.5,264.8z"/>
		<path class="st2" d="M949.7,267.5c-2.1,0-3.7-0.6-4.8-1.9s-1.7-3.1-1.7-5.5v-22.2c0-1.2,0.6-1.8,1.7-1.8c1.2,0,1.8,0.6,1.8,1.8
			v21.9c0,3.1,1.2,4.6,3.7,4.6c0.3,0,0.5,0,0.7,0s0.4,0,0.6,0c0.3,0,0.5,0,0.7,0.2c0.1,0.2,0.2,0.5,0.2,1c0,1-0.5,1.5-1.5,1.7
			c-0.2,0.1-0.5,0.1-0.7,0.1C950.2,267.5,949.9,267.5,949.7,267.5z"/>
		<path class="st2" d="M964.2,267.5c-2.5,0-4.4-0.7-5.6-2c-1.2-1.3-1.9-3.2-1.9-5.7v-11.1h-2.9c-1,0-1.5-0.5-1.5-1.4
			s0.5-1.3,1.5-1.3h2.9v-5c0-1.2,0.6-1.8,1.8-1.8s1.7,0.6,1.7,1.8v5h5.5c1,0,1.5,0.4,1.5,1.3c0,0.9-0.5,1.4-1.5,1.4h-5.5v10.7
			c0,1.7,0.3,2.9,1,3.8s1.8,1.3,3.4,1.3c0.6,0,1-0.1,1.4-0.2s0.7-0.2,1-0.2s0.5,0.1,0.7,0.3c0.2,0.2,0.3,0.6,0.3,1
			c0,0.3-0.1,0.7-0.2,1c-0.1,0.3-0.4,0.5-0.7,0.6s-0.8,0.2-1.4,0.3C965.2,267.4,964.7,267.5,964.2,267.5z"/>
		<path class="st2" d="M973,267.4c-1.2,0-1.7-0.6-1.7-1.8V238c0-1.2,0.6-1.8,1.7-1.8c1.2,0,1.8,0.6,1.8,1.8v11.5
			c0.7-1.3,1.7-2.2,2.9-2.9c1.3-0.7,2.7-1,4.2-1c5,0,7.5,2.8,7.5,8.3v11.6c0,1.2-0.6,1.8-1.7,1.8c-1.2,0-1.8-0.6-1.8-1.8v-11.4
			c0-2-0.4-3.4-1.2-4.3c-0.8-0.9-2-1.4-3.7-1.4c-1.9,0-3.5,0.6-4.6,1.8s-1.7,2.8-1.7,4.8v10.5C974.7,266.8,974.1,267.4,973,267.4z"
			/>
	</g>
	<g>
		<path class="st1" d="M1020.6,119.6c-2.5,0-4.7-0.4-6.8-1.3s-3.9-2.1-5.5-3.7s-2.8-3.4-3.7-5.5s-1.3-4.4-1.3-6.8s0.4-4.7,1.3-6.8
			c0.9-2.1,2.1-3.9,3.7-5.5c1.6-1.6,3.4-2.8,5.5-3.7c2.1-0.9,4.4-1.3,6.8-1.3c2.5,0,4.7,0.4,6.8,1.3c2.1,0.9,3.9,2.1,5.5,3.7
			s2.8,3.4,3.7,5.5c0.9,2.1,1.3,4.4,1.3,6.8s-0.4,4.7-1.3,6.8c-0.9,2.1-2.1,3.9-3.7,5.5s-3.4,2.8-5.5,3.7
			C1025.3,119.1,1023.1,119.6,1020.6,119.6z M1020.6,117c2.8,0,5.3-0.7,7.5-2s3.9-3.1,5.2-5.3c1.3-2.2,1.9-4.7,1.9-7.5
			s-0.6-5.3-1.9-7.5s-3-4-5.2-5.3s-4.7-1.9-7.5-1.9s-5.3,0.6-7.5,1.9s-4,3.1-5.2,5.3c-1.3,2.2-1.9,4.7-1.9,7.5s0.6,5.3,1.9,7.5
			c1.3,2.2,3,4,5.2,5.3C1015.3,116.4,1017.8,117,1020.6,117z"/>
		<g>
			<path class="st1" d="M1014.2,108.1c-0.4,0-0.7-0.1-0.9-0.3c-0.2-0.2-0.3-0.5-0.3-0.9v-8.1h-2.8c-0.7,0-1-0.3-1-1s0.3-1,1-1h8.2
				c0.7,0,1,0.3,1,1s-0.3,1-1,1h-2.8v8.1c0,0.4-0.1,0.7-0.3,0.9C1014.9,107.9,1014.6,108.1,1014.2,108.1z"/>
			<path class="st1" d="M1021.5,108.1c-0.4,0-0.6-0.1-0.8-0.3c-0.2-0.2-0.3-0.5-0.3-0.9v-9.3c0-0.4,0.1-0.7,0.3-0.9
				c0.2-0.2,0.5-0.3,0.9-0.3c0.3,0,0.6,0.1,0.8,0.2s0.4,0.3,0.5,0.6l3.4,6.3l3.4-6.3c0.2-0.3,0.3-0.5,0.5-0.6s0.4-0.2,0.7-0.2
				c0.4,0,0.6,0.1,0.8,0.3c0.2,0.2,0.3,0.5,0.3,0.9v9.3c0,0.8-0.4,1.2-1.1,1.2c-0.8,0-1.1-0.4-1.1-1.2V101l-2.6,4.7
				c-0.1,0.2-0.3,0.4-0.4,0.5s-0.3,0.2-0.6,0.2c-0.2,0-0.4-0.1-0.6-0.2s-0.3-0.3-0.4-0.5l-2.6-4.7v5.9
				C1022.6,107.7,1022.3,108.1,1021.5,108.1z"/>
		</g>
	</g>
</g>
<image style="overflow:visible;" width="2083" height="125" xlink:href="../Mailer Footer.jpg"  transform="matrix(0.48 0 0 0.48 242.9479 991.2114)">
</image>
</svg>
